<svg aria-hidden="true" style="position: absolute; width: 0; height: 0; overflow: hidden;" version="1.1" xmlns="http://www.w3.org/2000/svg" xmlns:xlink="http://www.w3.org/1999/xlink">
<defs>
<symbol id="icon_social_4" viewBox="0 0 30 32">
<path d="M15.735 8.391c-3.996 0-7.181 3.25-7.181 7.188 0 4 3.185 7.188 7.181 7.188 3.934 0 7.181-3.188 7.181-7.188 0-3.938-3.247-7.188-7.181-7.188zM15.735 20.266c-2.56 0-4.683-2.062-4.683-4.688 0-2.563 2.061-4.625 4.683-4.625 2.56 0 4.621 2.062 4.621 4.625 0 2.625-2.060 4.688-4.621 4.688zM24.852 8.141c0-0.938-0.749-1.688-1.686-1.688s-1.686 0.75-1.686 1.688 0.749 1.688 1.686 1.688c0.937 0 1.686-0.75 1.686-1.688zM29.597 9.829c-0.125-2.25-0.624-4.25-2.248-5.875s-3.622-2.125-5.869-2.25c-2.31-0.125-9.242-0.125-11.552 0-2.248 0.125-4.184 0.625-5.87 2.25-1.624 1.625-2.123 3.625-2.248 5.875-0.125 2.313-0.125 9.25 0 11.563 0.125 2.25 0.624 4.187 2.248 5.875 1.686 1.625 3.622 2.125 5.87 2.25 2.31 0.125 9.242 0.125 11.552 0 2.248-0.125 4.246-0.625 5.869-2.25 1.624-1.688 2.123-3.625 2.248-5.875 0.125-2.313 0.125-9.25 0-11.563zM26.6 23.829c-0.437 1.25-1.436 2.187-2.622 2.688-1.873 0.75-6.244 0.562-8.242 0.562-2.061 0-6.432 0.188-8.242-0.562-1.249-0.5-2.186-1.438-2.685-2.688-0.749-1.813-0.562-6.188-0.562-8.25 0-2-0.187-6.375 0.562-8.25 0.5-1.188 1.436-2.125 2.685-2.625 1.811-0.75 6.182-0.563 8.242-0.563 1.998 0 6.369-0.188 8.242 0.563 1.186 0.438 2.123 1.438 2.622 2.625 0.749 1.875 0.562 6.25 0.562 8.25 0 2.062 0.187 6.438-0.562 8.25z"></path>
</symbol>
<symbol id="icon_social_3" viewBox="0 0 30 32">
<path d="M8.069 29.111v-18.688h-5.807v18.688h5.807zM5.134 7.924c1.873 0 3.372-1.563 3.372-3.438 0-1.813-1.499-3.313-3.372-3.313-1.811 0-3.309 1.5-3.309 3.313 0 1.875 1.499 3.438 3.309 3.438zM29.737 29.111h0.062v-10.25c0-5-1.124-8.875-6.994-8.875-2.81 0-4.683 1.563-5.495 3h-0.062v-2.563h-5.557v18.688h5.807v-9.25c0-2.438 0.437-4.75 3.434-4.75s3.060 2.75 3.060 4.938v9.062h5.745z"></path>
</symbol>
<symbol id="icon_social_2" viewBox="0 0 38 32">
<path d="M34.153 7.938c1.405-1.055 2.67-2.32 3.653-3.797-1.264 0.563-2.739 0.984-4.215 1.125 1.545-0.914 2.669-2.32 3.232-4.078-1.405 0.844-3.021 1.477-4.637 1.828-1.405-1.477-3.302-2.32-5.409-2.32-4.074 0-7.376 3.305-7.376 7.383 0 0.563 0.070 1.125 0.211 1.688-6.112-0.352-11.591-3.305-15.244-7.734-0.632 1.055-0.983 2.32-0.983 3.727 0 2.531 1.264 4.781 3.302 6.117-1.194-0.070-2.388-0.352-3.372-0.914v0.070c0 3.586 2.529 6.539 5.901 7.242-0.562 0.141-1.264 0.281-1.897 0.281-0.492 0-0.913-0.070-1.405-0.141 0.913 2.953 3.653 5.063 6.884 5.133-2.529 1.969-5.69 3.164-9.132 3.164-0.632 0-1.194-0.070-1.756-0.141 3.231 2.109 7.095 3.305 11.31 3.305 13.558 0 20.934-11.18 20.934-20.953 0-0.352 0-0.633 0-0.984z"></path>
</symbol>
<symbol id="icon_social_1" viewBox="0 0 16 32">
<path d="M14.681 17.2l0.787-5.175h-5.002v-3.375c0-1.463 0.674-2.813 2.922-2.813h2.304v-4.444c0 0-2.079-0.394-4.046-0.394-4.103 0-6.8 2.531-6.8 7.031v3.994h-4.608v5.175h4.608v12.6h5.62v-12.6h4.215z"></path>
</symbol>
<symbol id="icon_5" viewBox="0 0 76 32">
<path d="M0 19.328v-19.073h11.233v19.064l-11.233 0.009zM9.872 14.891l0.289-2.107-1.044-0.103-0.317 1.622c-0.653 0.326-1.454 0.485-2.414 0.485-1.305 0-2.34-0.41-3.095-1.24-0.764-0.83-1.137-1.92-1.137-3.281 0-1.324 0.373-2.415 1.109-3.272s1.706-1.286 2.909-1.286c0.615 0 1.137 0.075 1.557 0.214s0.802 0.326 1.165 0.569l0.308 1.603 1.063-0.103-0.308-2.107c-0.447-0.382-0.979-0.69-1.594-0.932-0.615-0.233-1.38-0.354-2.284-0.354-1.072 0-1.995 0.261-2.769 0.792s-1.38 1.231-1.808 2.097c-0.429 0.876-0.643 1.818-0.643 2.825 0 1.594 0.494 2.927 1.482 3.99s2.275 1.594 3.869 1.594c1.566 0 2.787-0.336 3.664-1.007z"></path>
<path d="M15.046 19.328v-19.073h4.829v19.064h-4.829v0.009zM15.559 15.73h3.813v-0.96h-1.314v-10.646h-2.517v0.96h1.333v9.686h-1.314v0.96z"></path>
<path d="M23.688 19.328v-19.073h8.483v19.064h-8.483v0.009zM25.226 8.794l-0.27 1.734 0.979 0.121 0.289-1.296c0.42-0.205 0.895-0.308 1.454-0.308 0.671 0 1.128 0.168 1.361 0.503s0.345 0.774 0.345 1.314v0.671c-0.205-0.019-0.42-0.037-0.653-0.047s-0.457-0.019-0.681-0.019c-0.839 0-1.641 0.149-2.386 0.447s-1.119 0.923-1.119 1.864c0 0.802 0.252 1.352 0.764 1.65 0.513 0.308 1.016 0.457 1.51 0.457 0.606 0 1.128-0.159 1.557-0.475s0.764-0.671 1.007-1.081v0.037c0.019 1.016 0.475 1.52 1.37 1.52 0.345 0 0.671-0.084 0.979-0.252l-0.019-0.774c-0.149 0.065-0.317 0.103-0.503 0.103-0.429 0-0.643-0.27-0.643-0.811v-3.57c0-1.678-0.895-2.517-2.685-2.517-0.494 0-0.96 0.056-1.398 0.168-0.447 0.121-0.867 0.308-1.259 0.559zM29.374 12.915c-0.047 0.615-0.298 1.109-0.755 1.464-0.457 0.364-0.942 0.541-1.464 0.541-0.326 0-0.643-0.093-0.942-0.27-0.308-0.177-0.457-0.513-0.457-0.998 0-0.587 0.233-0.96 0.68-1.137 0.457-0.177 0.96-0.261 1.529-0.261 0.252 0 0.494 0.009 0.727 0.037 0.233 0.019 0.466 0.037 0.671 0.047v0.578h0.009z"></path>
<path d="M35.993 19.328v-19.073h7.709v19.064h-7.709v0.009zM42.891 13.558c0-0.597-0.158-1.035-0.475-1.324s-0.699-0.485-1.165-0.597c-0.466-0.112-0.923-0.205-1.38-0.28s-0.848-0.196-1.165-0.354c-0.317-0.158-0.475-0.438-0.475-0.839 0-0.382 0.149-0.662 0.457-0.848s0.69-0.27 1.165-0.27c0.55 0 1.063 0.121 1.538 0.373l0.186 1.212 0.979-0.121-0.186-1.753c-0.317-0.196-0.699-0.354-1.156-0.485s-0.942-0.205-1.464-0.205c-0.69 0-1.324 0.168-1.911 0.494s-0.876 0.886-0.876 1.687c0 0.587 0.158 1.016 0.475 1.286 0.317 0.28 0.709 0.466 1.184 0.578s0.942 0.205 1.408 0.289c0.466 0.075 0.858 0.205 1.175 0.373s0.475 0.457 0.475 0.876c0 0.429-0.205 0.746-0.615 0.951s-0.876 0.308-1.408 0.308c-0.597 0-1.156-0.121-1.669-0.373l0.047-0.998-0.942-0.103-0.233 1.706c0.326 0.214 0.755 0.392 1.277 0.531s1.044 0.214 1.575 0.214c0.904 0 1.659-0.205 2.265-0.625 0.606-0.401 0.914-0.979 0.914-1.706z"></path>
<path d="M47.515 19.328v-19.073h7.709v19.064h-7.709v0.009zM54.413 13.558c0-0.597-0.158-1.035-0.475-1.324s-0.699-0.485-1.165-0.597c-0.466-0.112-0.923-0.205-1.38-0.28s-0.848-0.196-1.165-0.354c-0.317-0.158-0.475-0.438-0.475-0.839 0-0.382 0.149-0.662 0.457-0.848s0.69-0.27 1.165-0.27c0.55 0 1.063 0.121 1.538 0.373l0.187 1.212 0.979-0.121-0.186-1.753c-0.317-0.196-0.699-0.354-1.156-0.485s-0.942-0.205-1.464-0.205c-0.69 0-1.324 0.168-1.911 0.494s-0.876 0.886-0.876 1.687c0 0.587 0.158 1.016 0.475 1.286 0.317 0.28 0.709 0.466 1.184 0.578s0.941 0.205 1.408 0.289c0.466 0.075 0.858 0.205 1.175 0.373s0.475 0.457 0.475 0.876c0 0.429-0.205 0.746-0.615 0.951s-0.876 0.308-1.408 0.308c-0.597 0-1.156-0.121-1.669-0.373l0.047-0.998-0.942-0.103-0.233 1.706c0.326 0.214 0.755 0.392 1.277 0.531s1.044 0.214 1.575 0.214c0.904 0 1.659-0.205 2.265-0.625 0.606-0.401 0.913-0.979 0.913-1.706z"></path>
<path d="M59.037 19.328v-19.073h5.081v19.064h-5.081v0.009zM59.783 15.73h3.813v-0.96h-1.314v-6.544h-2.526v0.96h1.352v5.584h-1.314v0.96h-0.009zM60.976 4.748v1.538h1.286v-1.538h-1.286z"></path>
<path d="M67.931 19.328v-19.073h8.12v19.064h-8.12v0.009zM75.323 13.204l-1.016-0.224c-0.223 1.268-0.904 1.902-2.023 1.902-0.746 0-1.315-0.252-1.706-0.755s-0.588-1.212-0.588-2.107c0-0.811 0.177-1.501 0.522-2.079s0.923-0.858 1.724-0.858c0.616 0 1.156 0.14 1.604 0.419l0.289 1.268 0.979-0.121-0.289-1.809c-0.382-0.289-0.783-0.494-1.202-0.606s-0.876-0.168-1.37-0.168c-1.166 0-2.051 0.41-2.629 1.23-0.587 0.82-0.876 1.753-0.876 2.787 0 1.203 0.308 2.144 0.933 2.806 0.615 0.671 1.445 1.007 2.48 1.007s1.799-0.289 2.284-0.858c0.485-0.578 0.783-1.184 0.886-1.836z"></path>
<path d="M4.857 29.741c-0.214 0.392-0.531 0.699-0.942 0.914-0.419 0.214-0.914 0.326-1.492 0.326h-1.669v-5.258h1.669c0.578 0 1.081 0.103 1.492 0.317s0.727 0.513 0.942 0.914c0.214 0.401 0.317 0.858 0.317 1.398 0 0.531-0.103 0.997-0.317 1.389zM3.934 29.844c0.364-0.354 0.541-0.848 0.541-1.492s-0.177-1.137-0.541-1.492c-0.364-0.354-0.886-0.531-1.575-0.531h-0.942v4.046h0.942c0.69 0 1.212-0.177 1.575-0.531z"></path>
<path d="M8.632 26.273v1.799h1.995v0.522h-1.995v1.836h2.219v0.55h-2.899v-5.258h2.899v0.55h-2.219z"></path>
<path d="M16.743 30.31c-0.121 0.214-0.298 0.392-0.541 0.522s-0.541 0.205-0.904 0.205c-0.345 0-0.662-0.065-0.932-0.186-0.27-0.131-0.485-0.298-0.653-0.522-0.158-0.224-0.252-0.475-0.28-0.755h0.727c0.019 0.149 0.065 0.298 0.149 0.438s0.214 0.261 0.373 0.354c0.159 0.093 0.354 0.14 0.587 0.14 0.298 0 0.531-0.075 0.69-0.242s0.242-0.364 0.242-0.615c0-0.214-0.056-0.392-0.168-0.522s-0.252-0.242-0.41-0.317-0.392-0.158-0.671-0.252c-0.336-0.112-0.597-0.214-0.802-0.308s-0.373-0.242-0.513-0.438c-0.14-0.196-0.214-0.447-0.214-0.764 0-0.27 0.065-0.513 0.196-0.727 0.13-0.205 0.317-0.373 0.569-0.485 0.242-0.112 0.541-0.168 0.867-0.168 0.513 0 0.932 0.121 1.23 0.373 0.308 0.252 0.475 0.569 0.531 0.96h-0.727c-0.037-0.205-0.149-0.392-0.317-0.55-0.177-0.159-0.41-0.242-0.709-0.242-0.27 0-0.494 0.075-0.653 0.214-0.168 0.14-0.242 0.345-0.242 0.597 0 0.205 0.056 0.373 0.159 0.494 0.112 0.13 0.242 0.224 0.401 0.298s0.382 0.149 0.653 0.242c0.336 0.112 0.606 0.214 0.82 0.317 0.205 0.103 0.382 0.252 0.522 0.447s0.214 0.466 0.214 0.802c-0.019 0.242-0.075 0.475-0.196 0.69z"></path>
<path d="M20.378 25.723v5.258h-0.681v-5.258h0.681z"></path>
<path d="M27.258 26.124c0.419 0.308 0.699 0.718 0.839 1.24h-0.718c-0.121-0.317-0.336-0.578-0.625-0.764-0.289-0.196-0.634-0.289-1.035-0.289-0.354 0-0.681 0.084-0.96 0.252s-0.503 0.401-0.671 0.709c-0.159 0.308-0.242 0.671-0.242 1.091 0 0.429 0.084 0.802 0.242 1.109s0.392 0.55 0.68 0.718 0.625 0.252 1.007 0.252c0.326 0 0.615-0.075 0.886-0.205 0.27-0.14 0.485-0.345 0.662-0.606s0.27-0.578 0.308-0.932h-2.070v-0.503h2.638v0.625c-0.047 0.42-0.177 0.792-0.392 1.137s-0.503 0.606-0.867 0.802c-0.364 0.196-0.774 0.298-1.24 0.298-0.503 0-0.951-0.112-1.342-0.336s-0.69-0.541-0.904-0.951c-0.214-0.401-0.326-0.867-0.326-1.389s0.112-0.988 0.326-1.389c0.214-0.401 0.522-0.727 0.904-0.951s0.83-0.345 1.333-0.345c0.634-0.019 1.147 0.13 1.566 0.429z"></path>
<path d="M35.079 30.981h-0.681l-2.731-4.158v4.158h-0.68v-5.258h0.68l2.731 4.158v-4.158h0.681v5.258z"></path>
<path d="M44.886 30.31c-0.121 0.214-0.298 0.392-0.541 0.522s-0.541 0.205-0.904 0.205c-0.345 0-0.662-0.065-0.932-0.186-0.27-0.131-0.485-0.298-0.653-0.522-0.158-0.224-0.252-0.475-0.28-0.755h0.727c0.019 0.149 0.065 0.298 0.149 0.438s0.214 0.261 0.373 0.354c0.158 0.093 0.354 0.14 0.587 0.14 0.298 0 0.531-0.075 0.69-0.242s0.242-0.364 0.242-0.615c0-0.214-0.056-0.392-0.168-0.522s-0.252-0.242-0.41-0.317-0.392-0.158-0.671-0.252c-0.336-0.112-0.597-0.214-0.802-0.308s-0.373-0.242-0.513-0.438c-0.14-0.196-0.214-0.447-0.214-0.764 0-0.27 0.065-0.513 0.196-0.727 0.13-0.205 0.317-0.373 0.569-0.485 0.242-0.112 0.541-0.168 0.867-0.168 0.513 0 0.932 0.121 1.23 0.373 0.308 0.252 0.475 0.569 0.531 0.96h-0.727c-0.037-0.205-0.149-0.392-0.317-0.55-0.177-0.159-0.41-0.242-0.708-0.242-0.27 0-0.494 0.075-0.653 0.214-0.168 0.14-0.242 0.345-0.242 0.597 0 0.205 0.056 0.373 0.158 0.494 0.112 0.13 0.242 0.224 0.401 0.298s0.382 0.149 0.653 0.242c0.336 0.112 0.606 0.214 0.82 0.317 0.205 0.103 0.382 0.252 0.522 0.447s0.214 0.466 0.214 0.802c-0.019 0.242-0.075 0.475-0.196 0.69z"></path>
<path d="M51.067 25.723v0.55h-1.482v4.708h-0.69v-4.708h-1.482v-0.55h3.654z"></path>
<path d="M54.236 25.723v3.151c0 0.513 0.112 0.895 0.345 1.147 0.233 0.242 0.541 0.373 0.951 0.373 0.401 0 0.709-0.121 0.932-0.373s0.336-0.625 0.336-1.137v-3.151h0.681v3.151c0 0.718-0.177 1.258-0.531 1.613-0.354 0.364-0.83 0.541-1.426 0.541-0.587 0-1.063-0.177-1.417-0.541s-0.531-0.895-0.531-1.613v-3.151h0.662v-0.009z"></path>
<path d="M64.5 29.741c-0.214 0.392-0.531 0.699-0.942 0.914-0.42 0.214-0.914 0.326-1.492 0.326h-1.669v-5.258h1.669c0.578 0 1.081 0.103 1.492 0.317s0.727 0.513 0.942 0.914 0.317 0.858 0.317 1.398c0 0.531-0.103 0.997-0.317 1.389zM63.586 29.844c0.364-0.354 0.541-0.848 0.541-1.492s-0.177-1.137-0.541-1.492c-0.364-0.354-0.886-0.531-1.575-0.531h-0.942v4.046h0.942c0.681 0 1.212-0.177 1.575-0.531z"></path>
<path d="M68.285 25.723v5.258h-0.68v-5.258h0.68z"></path>
<path d="M74.96 26.003c0.391 0.233 0.699 0.55 0.923 0.96s0.336 0.876 0.336 1.389-0.112 0.979-0.336 1.389c-0.224 0.41-0.532 0.727-0.923 0.96s-0.83 0.345-1.315 0.345-0.933-0.112-1.324-0.345c-0.392-0.233-0.709-0.55-0.933-0.96s-0.335-0.876-0.335-1.389 0.112-0.979 0.335-1.389c0.224-0.41 0.532-0.727 0.933-0.96s0.839-0.345 1.324-0.345c0.485 0 0.923 0.112 1.315 0.345zM72.666 26.544c-0.289 0.168-0.513 0.401-0.671 0.718-0.158 0.308-0.242 0.671-0.242 1.091 0 0.41 0.084 0.774 0.242 1.091s0.382 0.55 0.671 0.718c0.289 0.168 0.606 0.252 0.97 0.252 0.354 0 0.68-0.084 0.969-0.252s0.513-0.41 0.671-0.718 0.242-0.671 0.242-1.081c0-0.419-0.084-0.783-0.242-1.091s-0.382-0.55-0.671-0.718c-0.289-0.168-0.606-0.252-0.969-0.252-0.355-0.009-0.68 0.075-0.97 0.242z"></path>
</symbol>
<symbol id="icon_4" viewBox="0 0 101 32">
<path d="M14.081 6.414l0.745-0.159c0.189 0 0.348 0.040 0.457 0.119s0.169 0.159 0.169 0.228c0 0.069-0.020 0.179-0.050 0.308s-0.308 1.46-0.824 3.972c-0.516 2.512-0.894 4.389-1.132 5.62 1.152-1.569 2.502-3.495 4.042-5.789s2.443-3.813 2.701-4.568c0.079-0.238 0.189-0.417 0.318-0.546s0.248-0.209 0.348-0.228c0.099-0.020 0.258-0.040 0.467-0.040s0.457 0.050 0.745 0.139c0.288 0.089 0.437 0.238 0.437 0.457 0 0.397-0.596 1.559-1.778 3.466s-2.542 3.932-4.071 6.077-2.8 3.843-3.823 5.094c-0.179 0.218-0.407 0.338-0.665 0.338s-0.536-0.050-0.824-0.139c-0.288-0.089-0.437-0.248-0.437-0.487 0-0.745 0.655-4.339 1.966-10.764-1.122 1.45-2.483 3.476-4.081 6.067-1.668 2.681-2.612 4.349-2.83 4.985-0.119 0.387-0.258 0.616-0.417 0.675-0.109 0.050-0.228 0.070-0.348 0.070l-0.804 0.089c-0.159 0-0.298-0.040-0.437-0.129-0.129-0.089-0.199-0.179-0.199-0.278 0-0.268 0.377-1.082 1.122-2.433s1.629-2.82 2.631-4.409c1.003-1.589 2.046-3.128 3.138-4.627s1.936-2.512 2.532-3.019c0.119-0.109 0.258-0.159 0.417-0.159l0.487 0.069z"></path>
<path d="M26.017 13.146c0.516 0 0.775 0.179 0.775 0.526 0 0.189-0.040 0.328-0.129 0.417s-0.278 0.377-0.566 0.884c-0.288 0.497-0.606 1.132-0.953 1.917-0.348 0.775-0.576 1.44-0.675 1.986-0.020 0.070-0.030 0.159-0.030 0.288 0 0.377 0.099 0.556 0.308 0.556s0.447-0.099 0.725-0.288c0.278-0.199 0.526-0.397 0.745-0.626 0.218-0.218 0.427-0.447 0.636-0.675s0.328-0.367 0.367-0.397c0.040-0.030 0.099-0.050 0.179-0.050 0.129 0 0.209 0.099 0.238 0.298s0.040 0.397 0.040 0.616c0 0.218-0.020 0.358-0.060 0.437-0.199 0.387-0.626 0.854-1.301 1.4-0.665 0.546-1.281 0.814-1.827 0.814s-0.953-0.169-1.202-0.497c-0.248-0.328-0.387-0.705-0.387-1.102 0-0.407 0.070-0.755 0.209-1.062-0.566 0.735-1.211 1.35-1.936 1.867-0.735 0.506-1.321 0.765-1.787 0.765s-0.834-0.139-1.132-0.417c-0.377-0.348-0.556-0.824-0.556-1.44s0.139-1.231 0.417-1.857c0.278-0.616 0.636-1.192 1.082-1.698 0.447-0.516 0.943-0.983 1.48-1.4 1.122-0.884 2.165-1.321 3.118-1.321 0.367 0 0.665 0.060 0.894 0.179s0.377 0.278 0.437 0.457c0.159-0.248 0.298-0.397 0.417-0.467 0.089-0.079 0.258-0.109 0.477-0.109zM24.666 14.278c-1.162 0-2.363 0.646-3.605 1.936-0.437 0.467-0.844 1.013-1.221 1.658s-0.556 1.082-0.556 1.321 0.070 0.358 0.209 0.358c0.189 0 0.715-0.377 1.589-1.122s1.45-1.301 1.728-1.658c0.318-0.397 0.933-1.231 1.857-2.492z"></path>
<path d="M33.743 7.764l0.417 0.099c0.060 0 0.119 0.030 0.159 0.089 0.050 0.060 0.069 0.119 0.069 0.169s-0.069 0.199-0.218 0.437-0.308 0.506-0.506 0.804c-0.199 0.298-0.298 0.467-0.308 0.496 0.526-0.040 0.904-0.060 1.122-0.060s0.367 0.020 0.457 0.050c0.079 0.030 0.179 0.119 0.278 0.258 0.109 0.139 0.199 0.248 0.288 0.318s0.129 0.179 0.129 0.318c0 0.139-0.089 0.268-0.258 0.357-0.169 0.099-0.358 0.159-0.556 0.179-1.579 0.159-2.443 0.238-2.602 0.248-0.546 0.844-1.321 2.155-2.304 3.932s-1.509 2.9-1.569 3.346c-0.030 0.209-0.040 0.367-0.040 0.497 0 0.268 0.139 0.397 0.417 0.397s0.586-0.109 0.923-0.318c0.338-0.218 0.655-0.447 0.933-0.695 0.765-0.675 1.172-1.023 1.221-1.023 0.179 0 0.268 0.308 0.268 0.914 0 0.328-0.149 0.626-0.457 0.894-0.685 0.586-1.261 1.033-1.728 1.331s-0.933 0.447-1.41 0.447c-0.099 0-0.199-0.010-0.288-0.030-0.546-0.099-0.943-0.298-1.192-0.596-0.258-0.298-0.377-0.695-0.377-1.192s0.149-1.112 0.447-1.827c0.298-0.715 0.665-1.48 1.112-2.284 0.735-1.321 1.47-2.552 2.195-3.704l-0.387 0.050c-0.785 0.089-1.241 0.129-1.37 0.129h-0.089c-0.199 0-0.387-0.040-0.566-0.119s-0.278-0.179-0.278-0.288c0-0.119 0.050-0.228 0.149-0.338s0.159-0.199 0.179-0.258c0.050-0.149 0.228-0.318 0.536-0.496s0.536-0.278 0.695-0.288 0.308-0.020 0.457-0.030c0.149-0.010 0.308-0.010 0.487-0.020s0.318-0.010 0.417-0.020l0.914-0.040c0.566-0.854 0.963-1.41 1.172-1.648 0.218-0.248 0.338-0.377 0.367-0.397s0.099-0.040 0.209-0.040l0.487-0.050z"></path>
<path d="M39.849 17.684c0.129 0 0.209 0.099 0.238 0.298s0.040 0.397 0.040 0.616c0 0.218-0.020 0.358-0.060 0.437-0.199 0.377-0.626 0.844-1.291 1.39s-1.301 0.824-1.897 0.824c-0.367 0-0.705-0.109-1.023-0.328-0.308-0.218-0.467-0.606-0.467-1.152s0.149-1.092 0.437-1.619c-1.688 2.115-2.999 3.168-3.962 3.168-0.377 0-0.685-0.139-0.923-0.407s-0.348-0.546-0.348-0.844c0-0.288 0.040-0.586 0.119-0.894s0.169-0.586 0.258-0.834c0.089-0.248 0.228-0.546 0.407-0.904s0.318-0.616 0.397-0.785c0.079-0.169 0.228-0.407 0.427-0.735s0.447-0.775 0.765-1.331c0.318-0.556 0.576-0.973 0.785-1.241s0.407-0.407 0.606-0.407 0.367 0.079 0.516 0.238c0.149 0.159 0.228 0.298 0.228 0.397s-0.228 0.556-0.685 1.37c-1.341 2.433-2.016 3.843-2.016 4.25 0 0.099 0.040 0.149 0.109 0.149 0.328 0 1.142-0.705 2.433-2.115s2.046-2.314 2.254-2.711c0.209-0.397 0.397-0.735 0.596-1.003 0.189-0.268 0.338-0.437 0.437-0.496 0.288-0.189 0.665-0.288 1.132-0.308 0.079 0 0.129 0 0.169 0.010s0.089 0.069 0.139 0.169c0.050 0.099 0.079 0.189 0.079 0.258-0.060 0.189-0.328 0.695-0.814 1.519-0.477 0.824-0.745 1.291-0.794 1.39-0.804 1.658-1.202 2.741-1.202 3.237 0 0.288 0.109 0.427 0.328 0.427 0.397-0.050 0.874-0.367 1.43-0.943 0.209-0.209 0.407-0.427 0.606-0.645s0.328-0.348 0.367-0.377c0.050-0.050 0.109-0.070 0.179-0.070z"></path>
<path d="M42.799 15.331c1.599-1.817 2.969-2.731 4.091-2.731 0.278 0 0.506 0.079 0.685 0.248s0.268 0.377 0.268 0.646-0.189 0.705-0.566 1.331c-0.377 0.616-0.725 1.142-1.043 1.569-0.169 0.218-0.358 0.328-0.576 0.328-0.209 0-0.377-0.079-0.496-0.238s-0.179-0.338-0.179-0.546c0-0.467 0.248-1.003 0.755-1.589l-0.020-0.020c-0.228 0.020-0.775 0.467-1.668 1.321-0.884 0.864-1.638 1.638-2.264 2.314-0.616 0.685-1.291 1.509-2.026 2.492-0.209 0.288-0.387 0.437-0.536 0.437s-0.338-0.050-0.576-0.139c-0.238-0.089-0.387-0.159-0.437-0.199s-0.079-0.109-0.079-0.209c0-0.089 0.030-0.209 0.079-0.328 0.050-0.129 0.159-0.308 0.298-0.536s0.367-0.606 0.665-1.122c0.298-0.516 0.755-1.301 1.38-2.343s0.993-1.678 1.122-1.897c0.258-0.447 0.467-0.775 0.636-0.973 0.308-0.387 0.824-0.576 1.549-0.576 0.159 0 0.248 0.099 0.248 0.308 0 0.318-0.298 0.923-0.884 1.797l-0.427 0.655z"></path>
<path d="M53.752 13.265c0 0.447-0.179 0.844-0.546 1.182s-0.775 0.506-1.241 0.506c-0.149 0-0.248-0.040-0.298-0.109s-0.070-0.169-0.070-0.278c0-0.109 0.010-0.228 0.040-0.338-0.248 0.079-0.516 0.209-0.814 0.377s-0.665 0.417-1.102 0.755c-0.437 0.338-0.655 0.576-0.655 0.745 0 0.050 0.079 0.079 0.238 0.079s0.407-0.060 0.735-0.169c0.328-0.109 0.566-0.169 0.695-0.169s0.218 0.010 0.258 0.020c0.089 0.050 0.179 0.149 0.288 0.308 0.099 0.159 0.149 0.288 0.149 0.377s-0.089 0.209-0.268 0.358c-0.179 0.149-0.377 0.258-0.596 0.338-0.228 0.079-0.377 0.139-0.447 0.179-1.43 0.804-2.145 1.351-2.145 1.648 0 0.526 0.447 0.794 1.351 0.794 0.576 0 1.162-0.179 1.738-0.546 0.497-0.308 0.943-0.626 1.341-0.953 0.397-0.318 0.645-0.516 0.755-0.596s0.189-0.109 0.238-0.109c0.179 0 0.268 0.199 0.268 0.596s-0.020 0.655-0.070 0.775c-0.050 0.129-0.179 0.278-0.407 0.467-1.45 1.182-2.83 1.778-4.121 1.778-0.695 0-1.241-0.099-1.658-0.288-0.765-0.348-1.142-0.874-1.142-1.589 0-0.933 0.645-1.648 1.946-2.125-0.258-0.119-0.427-0.258-0.496-0.447-0.079-0.179-0.109-0.467-0.109-0.864s0.189-0.814 0.556-1.261c0.367-0.447 0.824-0.814 1.36-1.092 1.192-0.645 2.264-0.963 3.197-0.963 0.228 0 0.447 0.050 0.685 0.159s0.348 0.258 0.348 0.457z"></path>
<path d="M76.929 6.354h0.129c0.040 0 0.070 0 0.080 0.010s0.019 0.010 0.040 0.020c0.019 0 0.030 0.010 0.049 0.030 0.030 0.030 0.079 0.060 0.139 0.089 0.079 0.060 0.119 0.129 0.119 0.209s-0.079 0.248-0.238 0.506c-0.159 0.258-0.566 0.884-1.231 1.897-1.519 2.324-2.88 4.488-4.081 6.474-2.076 3.456-3.128 5.193-3.148 5.213s-0.030 0.040-0.040 0.060c-0.010 0.040-0.030 0.060-0.079 0.060l-0.139-0.030-0.278 0.070-0.159-0.030-0.169 0.030h-0.060l-0.566 0.079c-0.338 0-0.506-0.119-0.506-0.348 0-0.099 0.030-0.218 0.089-0.358 0.209-0.497 1.271-2.294 3.178-5.412-1.251 0.030-2.493 0.050-3.714 0.050l-2.185-0.010c-0.358 0.576-0.854 1.39-1.48 2.453-1.35 2.314-2.065 3.476-2.155 3.495s-0.159 0.040-0.218 0.040c-0.060 0-0.109-0.030-0.149-0.099-0.050-0.060-0.079-0.099-0.099-0.099s-0.050 0.010-0.109 0.040c-0.050 0.030-0.129 0.040-0.238 0.040l-0.238-0.010-0.089-0.060c-0.010 0-0.020 0.010-0.030 0.030s-0.040 0.030-0.079 0.030c-0.288 0-0.437-0.119-0.437-0.367 0-0.159 0.060-0.377 0.169-0.645 0.119-0.268 0.268-0.556 0.457-0.864s0.665-1.053 1.45-2.214c0.775-1.162 1.162-1.748 1.162-1.758-0.129-0.010-0.278-0.010-0.447-0.020-0.348 0-0.586-0.010-0.735-0.040-0.387-0.069-0.655-0.387-0.794-0.953-0.079-0.278-0.109-0.457-0.099-0.546 0-0.179 0.079-0.278 0.238-0.278l0.268 0.069c0.139 0.010 0.457 0.020 0.973 0.050s0.884 0.040 1.112 0.040l0.576-0.020c0.884-1.38 1.936-2.949 3.168-4.697-0.894 0.735-1.887 1.102-2.979 1.102-0.516 0-0.963-0.119-1.331-0.367-0.377-0.248-0.556-0.566-0.556-0.943s0.139-0.675 0.427-0.904c0.288-0.218 0.556-0.328 0.814-0.328s0.387 0.040 0.387 0.119c0 0.030-0.040 0.060-0.109 0.089-0.069 0.040-0.109 0.070-0.109 0.099 0 0.109 0.119 0.208 0.358 0.288s0.506 0.129 0.804 0.129c0.298 0 0.655-0.089 1.092-0.258s0.884-0.397 1.35-0.665c0.655-0.377 1.172-0.695 1.549-0.943 0.218-0.109 0.417-0.159 0.616-0.159s0.328 0.020 0.417 0.069c0.089 0.040 0.149 0.089 0.189 0.129s0.089 0.099 0.129 0.169c0.050 0.069 0.089 0.129 0.139 0.159 0.040 0.040 0.070 0.079 0.070 0.129s-0.030 0.119-0.079 0.228c-0.050 0.099-0.308 0.516-0.775 1.241s-1.073 1.648-1.807 2.77c-0.735 1.122-1.271 1.946-1.609 2.483 1.817 0 3.773-0.030 5.878-0.099 2.562-4.042 3.913-6.157 4.051-6.355s0.269-0.328 0.387-0.387 0.258-0.089 0.427-0.089l0.864 0.070z"></path>
<path d="M80.246 13.126c0.208 0 0.417 0.089 0.625 0.278 0.218 0.189 0.318 0.467 0.318 0.844s-0.129 0.864-0.397 1.47c-0.269 0.596-0.626 1.211-1.093 1.837-0.456 0.616-0.973 1.202-1.519 1.748-0.556 0.546-1.151 0.993-1.787 1.341-0.646 0.348-1.222 0.526-1.747 0.526s-0.943-0.169-1.261-0.497c-0.318-0.328-0.477-0.785-0.477-1.37s0.149-1.241 0.437-1.946c0.288-0.715 0.655-1.341 1.112-1.887s0.943-1.033 1.479-1.47c1.103-0.894 2.076-1.331 2.91-1.331 0.377 0 0.655 0.089 0.844 0.278 0.070 0.060 0.099 0.119 0.099 0.159v0.060c0.109-0.040 0.258-0.040 0.457-0.040zM79.222 14.477h-0.070c-0.238 0-0.358-0.169-0.358-0.516-0.496 0.159-1.012 0.447-1.559 0.854s-1.032 0.894-1.459 1.45c-0.874 1.112-1.311 2.056-1.32 2.82 0 0.377 0.138 0.566 0.417 0.566s0.695-0.189 1.241-0.546c0.546-0.358 1.093-0.884 1.639-1.569 0.536-0.675 0.943-1.271 1.211-1.768s0.407-0.834 0.407-1.023c-0.010-0.179-0.059-0.268-0.149-0.268z"></path>
<path d="M80.97 20.941l-0.497-0.020h-0.179c-0.070-0.020-0.139-0.060-0.218-0.119s-0.139-0.109-0.179-0.129c-0.040-0.020-0.060-0.079-0.060-0.149s0.030-0.199 0.080-0.367c1.32-2.91 2.601-5.243 3.843-6.981 0.139-0.189 0.358-0.338 0.655-0.437s0.595-0.149 0.883-0.149c0.169 0 0.258 0.129 0.258 0.397 0 0.079-0.029 0.179-0.079 0.298-0.049 0.129-0.189 0.328-0.407 0.616s-0.477 0.616-0.774 0.973c-0.298 0.357-0.467 0.576-0.506 0.635 0.933-0.963 1.767-1.678 2.522-2.155 0.755-0.467 1.291-0.705 1.629-0.705s0.596 0.099 0.775 0.288c0.179 0.189 0.268 0.397 0.268 0.616s-0.019 0.407-0.049 0.546c-0.030 0.149-0.090 0.298-0.169 0.457s-0.149 0.298-0.209 0.407c-0.059 0.109-0.159 0.258-0.288 0.437-0.138 0.179-0.228 0.308-0.278 0.377s-0.159 0.199-0.318 0.387c-0.159 0.189-0.248 0.298-0.258 0.318 0.189-0.189 0.456-0.467 0.794-0.844s0.625-0.685 0.864-0.933c0.238-0.248 0.526-0.536 0.883-0.854s0.685-0.576 0.983-0.765c0.735-0.457 1.48-0.695 2.234-0.695 0.258 0 0.477 0.079 0.655 0.248s0.269 0.357 0.269 0.586c0 0.228-0.278 0.775-0.824 1.629s-1.103 1.718-1.649 2.582c-0.546 0.864-0.824 1.41-0.824 1.638 0 0.308 0.060 0.497 0.169 0.556 0.119 0.060 0.258 0.079 0.417 0.070s0.397-0.119 0.685-0.318c0.298-0.199 0.556-0.397 0.784-0.616 0.378-0.338 0.715-0.665 1.043-0.983 0.070-0.060 0.139-0.089 0.228-0.089 0.129 0 0.209 0.099 0.239 0.298s0.040 0.397 0.040 0.616c0 0.218-0.019 0.358-0.060 0.437-0.198 0.377-0.635 0.844-1.301 1.4-0.675 0.546-1.32 0.824-1.936 0.824-0.079 0-0.129 0-0.159-0.010-0.696-0.070-1.182-0.258-1.45-0.576s-0.397-0.695-0.397-1.122 0.15-0.963 0.447-1.579c0.298-0.616 0.616-1.182 0.973-1.678s0.675-0.953 0.973-1.36c0.298-0.407 0.447-0.626 0.447-0.655s-0.030-0.050-0.079-0.050c-0.209 0-0.675 0.338-1.41 1.023-1.242 1.162-2.314 2.284-3.217 3.356-0.239 0.288-0.804 1.003-1.688 2.165-0.099 0.139-0.268 0.209-0.486 0.209s-0.447-0.040-0.685-0.129c-0.239-0.089-0.358-0.199-0.358-0.328 0-0.070 0.536-1.023 1.619-2.86s1.618-2.84 1.618-2.999c0-0.169-0.099-0.248-0.298-0.248s-0.616 0.298-1.241 0.894c-1.718 1.638-3.048 3.277-3.992 4.896-0.060 0.099-0.179 0.248-0.358 0.447s-0.338 0.278-0.397 0.278z"></path>
<path d="M100.662 13.265c0 0.447-0.179 0.844-0.546 1.182s-0.775 0.506-1.241 0.506c-0.15 0-0.248-0.040-0.298-0.109s-0.070-0.169-0.070-0.278 0.010-0.228 0.040-0.338c-0.248 0.079-0.516 0.209-0.814 0.377s-0.665 0.417-1.102 0.755c-0.438 0.338-0.656 0.576-0.656 0.745 0 0.050 0.080 0.079 0.239 0.079s0.407-0.060 0.735-0.169c0.328-0.109 0.566-0.169 0.696-0.169s0.218 0.010 0.258 0.020c0.089 0.050 0.179 0.149 0.288 0.308 0.099 0.159 0.149 0.288 0.149 0.377s-0.090 0.209-0.269 0.358c-0.179 0.149-0.377 0.258-0.595 0.338-0.228 0.079-0.378 0.139-0.447 0.179-1.43 0.804-2.145 1.351-2.145 1.648 0 0.526 0.447 0.794 1.351 0.794 0.575 0 1.162-0.179 1.738-0.546 0.496-0.308 0.943-0.626 1.341-0.953 0.397-0.318 0.645-0.516 0.755-0.596s0.189-0.109 0.238-0.109c0.179 0 0.269 0.199 0.269 0.596s-0.020 0.655-0.070 0.775c-0.050 0.129-0.179 0.278-0.408 0.467-1.45 1.182-2.83 1.778-4.121 1.778-0.695 0-1.241-0.099-1.658-0.288-0.765-0.348-1.142-0.874-1.142-1.589 0-0.933 0.646-1.648 1.946-2.125-0.258-0.119-0.427-0.258-0.497-0.447-0.079-0.179-0.109-0.467-0.109-0.864s0.189-0.814 0.556-1.261c0.368-0.447 0.824-0.814 1.361-1.092 1.192-0.645 2.264-0.963 3.197-0.963 0.229 0 0.447 0.050 0.685 0.159s0.348 0.258 0.348 0.457z"></path>
<path d="M0 23.692c2.612 1.092 5.273 1.936 7.984 2.582 2.691 0.675 5.432 1.152 8.173 1.45 1.37 0.189 2.751 0.209 4.111 0.338 1.38 0.010 2.751 0.119 4.121 0.040l2.055-0.050c0.685-0.010 1.37-0.099 2.055-0.139 0.685-0.060 1.37-0.089 2.046-0.179l2.036-0.288c2.731-0.298 5.382-0.933 8.024-1.698 2.671-0.735 5.193-1.708 7.865-2.721 2.731-1.003 5.69-1.658 8.689-1.341 1.48 0.189 2.969 0.665 4.181 1.539 1.221 0.864 2.095 2.095 2.651 3.386-0.834-1.152-1.877-2.095-3.078-2.681s-2.522-0.824-3.833-0.785c-2.651 0.040-5.263 0.924-7.716 2.036-2.492 1.231-5.193 2.343-7.914 3.267-2.741 0.884-5.571 1.589-8.441 1.946-5.71 0.755-11.559 0.765-17.199-0.377-2.83-0.516-5.591-1.321-8.262-2.343-2.651-1.063-5.243-2.304-7.547-3.982z"></path>
<path d="M94.961 7.158c-2.214-0.943-4.468-1.678-6.752-2.254-2.274-0.606-4.578-1.033-6.892-1.331-1.152-0.179-2.323-0.218-3.475-0.357-1.162-0.030-2.314-0.149-3.475-0.099-0.576 0.010-1.162 0.010-1.738 0-0.576 0-1.162 0.060-1.738 0.079-0.576 0.040-1.162 0.050-1.738 0.109l-1.728 0.209c-2.314 0.189-4.558 0.665-6.802 1.251-2.274 0.546-4.429 1.321-6.723 2.095-2.353 0.784-4.906 1.261-7.467 0.904-1.261-0.208-2.532-0.655-3.535-1.45-1.023-0.784-1.718-1.857-2.145-2.979 0.705 0.983 1.579 1.787 2.582 2.284s2.105 0.705 3.207 0.695c2.224 0 4.429-0.715 6.514-1.609 2.125-1.013 4.459-1.907 6.782-2.641 2.343-0.705 4.786-1.241 7.229-1.499 4.876-0.516 9.861-0.397 14.637 0.735 2.393 0.506 4.727 1.281 6.961 2.234 2.244 0.973 4.409 2.105 6.296 3.624z"></path>
</symbol>
<symbol id="icon_3" viewBox="0 0 119 32">
<path fill="#292f36" style="fill: var(--color1, #292f36)" d="M25.307 31.394h-19.504c-3.205 0-5.803-2.598-5.803-5.803v-19.504c0-3.205 2.598-5.803 5.803-5.803h19.504c3.205 0 5.803 2.598 5.803 5.803v19.504c0 3.205-2.598 5.803-5.803 5.803z"></path>
<path fill="#fff" style="fill: var(--color2, #fff)" d="M21.16 16.125c0.555 0.696 0.837 1.506 0.837 2.422 0 1.347-0.449 2.404-1.347 3.152s-2.184 1.136-3.857 1.136h-7.309v-15.718h7.132c1.603 0 2.835 0.352 3.707 1.048s1.312 1.691 1.312 2.976c0 0.951-0.255 1.735-0.757 2.369s-1.162 1.039-1.981 1.233c0.96 0.229 1.708 0.687 2.263 1.382zM13.279 13.545h2.492c1.321 0 1.981-0.564 1.981-1.691s-0.678-1.691-2.025-1.691h-2.448v3.381zM18.104 18.018c0-0.564-0.185-1.004-0.555-1.321s-0.898-0.476-1.576-0.476h-2.686v3.531h2.712c1.4-0.009 2.104-0.581 2.104-1.735z"></path>
<path fill="#292f36" style="fill: var(--color1, #292f36)" d="M49.135 22.835l-3.399-5.935h-0.863v5.935h-3.804v-15.718h6.49c1.242 0 2.298 0.211 3.152 0.643 0.863 0.431 1.506 1.021 1.937 1.77s0.643 1.603 0.643 2.571c0 1.145-0.317 2.113-0.942 2.915-0.634 0.801-1.541 1.347-2.747 1.647l3.734 6.181h-4.2v-0.009zM44.873 14.302h2.351c0.757 0 1.312-0.167 1.664-0.502s0.537-0.828 0.537-1.479c0-0.625-0.185-1.109-0.546-1.47-0.361-0.352-0.916-0.537-1.655-0.537h-2.351v3.989z"></path>
<path fill="#292f36" style="fill: var(--color1, #292f36)" d="M70.497 19.973h-5.891l-0.977 2.871h-3.998l5.759-15.603h4.376l5.759 15.603h-4.042l-0.986-2.871zM69.519 17.076l-1.955-5.776-1.981 5.776h3.936z"></path>
<path fill="#292f36" style="fill: var(--color1, #292f36)" d="M96.508 22.835h-3.804l-6.357-9.651v9.651h-3.804v-15.718h3.804l6.357 9.739v-9.739h3.804v15.718z"></path>
<path fill="#292f36" style="fill: var(--color1, #292f36)" d="M117.835 19.049c-0.66 1.189-1.611 2.122-2.844 2.791-1.242 0.669-2.695 1.004-4.368 1.004h-5.935v-15.718h5.935c1.691 0 3.153 0.326 4.377 0.977 1.233 0.652 2.175 1.567 2.835 2.756s0.986 2.545 0.986 4.095c0 1.532-0.335 2.897-0.986 4.095zM113.74 18.256c0.819-0.784 1.233-1.893 1.233-3.311 0-1.426-0.414-2.527-1.233-3.311s-1.972-1.18-3.46-1.18h-1.796v8.982h1.796c1.488 0 2.641-0.387 3.46-1.18z"></path>
</symbol>
<symbol id="icon_2" viewBox="0 0 32 32">
<path fill="#fff" style="fill: var(--color2, #fff)" d="M15.741 31.384c8.573 0 15.522-6.95 15.522-15.522s-6.949-15.522-15.522-15.522c-8.572 0-15.522 6.949-15.522 15.522s6.949 15.522 15.522 15.522z"></path>
<path fill="#292f36" style="fill: var(--color1, #292f36)" d="M15.742 31.603c-8.679 0-15.742-7.063-15.742-15.742s7.063-15.742 15.742-15.742c8.679 0 15.742 7.063 15.742 15.742s-7.063 15.742-15.742 15.742zM15.742 0.559c-8.437 0-15.302 6.865-15.302 15.302s6.865 15.302 15.302 15.302c8.437 0 15.302-6.865 15.302-15.302s-6.865-15.302-15.302-15.302z"></path>
<path fill="#292f36" style="fill: var(--color1, #292f36)" d="M17.955 1.917c0.105 0.009 0.198 0.013 0.272 0.013l-0.009 0.070c-0.123 0.018-0.228 0.11-0.312 0.285l-1.045 2.091-0.031-0.004-0.026-0.004-0.663-2.332c-0.044-0.154-0.119-0.237-0.224-0.25l0.009-0.070c0.097 0.018 0.224 0.031 0.382 0.048 0.206 0.018 0.36 0.031 0.461 0.031l-0.009 0.070c-0.092-0.004-0.158 0-0.198 0.013s-0.061 0.048-0.066 0.092c-0.004 0.040 0.004 0.097 0.026 0.171l0.488 1.783 0.725-1.458c0.061-0.119 0.092-0.215 0.101-0.285 0.009-0.075-0.013-0.132-0.061-0.171s-0.127-0.062-0.233-0.075l0.009-0.070c0.127 0.022 0.264 0.040 0.404 0.053z"></path>
<path fill="#292f36" style="fill: var(--color1, #292f36)" d="M20.907 2.843c-0.044 0-0.079 0.018-0.105 0.053s-0.057 0.092-0.088 0.176l-0.628 1.669c-0.031 0.083-0.048 0.149-0.048 0.193s0.013 0.079 0.044 0.105c0.031 0.026 0.088 0.057 0.167 0.092l-0.026 0.066c-0.101-0.044-0.242-0.101-0.422-0.171-0.193-0.075-0.338-0.123-0.435-0.154l0.026-0.066c0.083 0.026 0.145 0.040 0.184 0.040s0.079-0.018 0.105-0.053c0.026-0.035 0.057-0.092 0.088-0.176l0.628-1.669c0.031-0.083 0.048-0.149 0.048-0.193s-0.013-0.079-0.044-0.105c-0.031-0.026-0.088-0.057-0.167-0.092l0.026-0.066c0.092 0.040 0.233 0.097 0.426 0.171 0.18 0.070 0.325 0.119 0.43 0.149l-0.026 0.066c-0.079-0.026-0.141-0.040-0.184-0.035z"></path>
<path fill="#292f36" style="fill: var(--color1, #292f36)" d="M24.816 5.167c-0.044-0.009-0.088 0.004-0.127 0.031s-0.088 0.079-0.141 0.154l-1.274 1.726-0.066-0.048 0.171-2.776-1.129 1.529c-0.053 0.075-0.088 0.136-0.105 0.184s-0.009 0.092 0.013 0.136c0.022 0.044 0.075 0.092 0.149 0.154l-0.044 0.057c-0.066-0.057-0.163-0.132-0.29-0.228-0.114-0.083-0.206-0.149-0.277-0.189l0.044-0.057c0.070 0.048 0.127 0.075 0.171 0.079 0.044 0.009 0.088-0.004 0.127-0.031 0.040-0.031 0.088-0.079 0.141-0.154l1.037-1.405c0.053-0.075 0.088-0.132 0.101-0.171s0.009-0.079-0.013-0.114c-0.022-0.035-0.066-0.079-0.136-0.136l0.044-0.057c0.057 0.053 0.145 0.123 0.264 0.206 0.088 0.066 0.163 0.119 0.233 0.158l-0.141 2.328 0.914-1.239c0.053-0.075 0.092-0.136 0.105-0.184s0.009-0.092-0.013-0.136c-0.022-0.044-0.075-0.097-0.149-0.154l0.044-0.057c0.066 0.057 0.163 0.132 0.29 0.228 0.114 0.083 0.206 0.149 0.277 0.189l-0.044 0.057c-0.075-0.044-0.132-0.075-0.176-0.079z"></path>
<path fill="#292f36" style="fill: var(--color1, #292f36)" d="M26.287 7.148c0.114-0.083 0.233-0.176 0.36-0.29 0.11 0.167 0.303 0.444 0.58 0.835 0.277 0.386 0.474 0.659 0.593 0.817-0.149 0.088-0.277 0.167-0.391 0.246-0.097 0.070-0.176 0.132-0.233 0.18l-0.048-0.066c0.141-0.123 0.237-0.224 0.294-0.299s0.079-0.154 0.075-0.237c-0.004-0.083-0.057-0.184-0.141-0.307l-0.114-0.158-1.665 1.186c-0.079 0.057-0.136 0.11-0.163 0.149s-0.035 0.088-0.018 0.141c0.013 0.048 0.053 0.119 0.11 0.206l-0.057 0.044c-0.066-0.105-0.167-0.255-0.299-0.435-0.141-0.198-0.246-0.338-0.316-0.426l0.057-0.044c0.066 0.083 0.119 0.141 0.163 0.171s0.088 0.040 0.136 0.026c0.048-0.013 0.114-0.048 0.193-0.105l1.665-1.186-0.114-0.158c-0.088-0.123-0.167-0.198-0.242-0.233s-0.158-0.040-0.246-0.009c-0.088 0.031-0.215 0.088-0.378 0.18l-0.048-0.066c0.066-0.035 0.145-0.088 0.246-0.163z"></path>
<path fill="#292f36" style="fill: var(--color1, #292f36)" d="M27.13 13.244l-0.070 0.022c-0.026-0.097-0.061-0.22-0.114-0.369-0.066-0.193-0.119-0.338-0.158-0.435l0.070-0.022c0.031 0.083 0.066 0.145 0.092 0.176 0.031 0.031 0.070 0.040 0.114 0.022 0.040-0.013 0.088-0.044 0.145-0.092l0.488-0.4-0.277-0.821-0.408-0.018c-0.132-0.009-0.233 0-0.303 0.026s-0.114 0.066-0.132 0.123c-0.013 0.057-0.004 0.141 0.026 0.242l-0.070 0.022c-0.035-0.132-0.079-0.264-0.123-0.395-0.035-0.101-0.066-0.184-0.097-0.25l0.070-0.022c0.061 0.105 0.193 0.162 0.387 0.167l2.337 0.105 0.018 0.053-1.862 1.55c-0.114 0.11-0.158 0.211-0.132 0.316zM28.654 11.377l-1.151-0.048 0.259 0.773 0.892-0.725z"></path>
<path fill="#292f36" style="fill: var(--color1, #292f36)" d="M27.451 16.604c0.044-0.018 0.066-0.040 0.066-0.070 0-0.018-0.004-0.031-0.013-0.044s-0.026-0.040-0.053-0.075c-0.066-0.083-0.114-0.171-0.149-0.259s-0.053-0.189-0.053-0.299c-0.004-0.246 0.044-0.457 0.141-0.637 0.101-0.18 0.242-0.316 0.435-0.413 0.189-0.097 0.417-0.145 0.685-0.149 0.277-0.004 0.518 0.040 0.725 0.136s0.369 0.228 0.483 0.404c0.114 0.176 0.176 0.373 0.176 0.593 0 0.097-0.009 0.184-0.026 0.259s-0.044 0.141-0.075 0.198c-0.031 0.057-0.070 0.123-0.123 0.193-0.022 0.031-0.035 0.057-0.035 0.075 0 0.044 0.075 0.075 0.22 0.088v0.083c-0.154-0.009-0.43-0.009-0.826 0v-0.083c0.127-0.022 0.233-0.048 0.316-0.075s0.154-0.066 0.215-0.114c0.083-0.070 0.154-0.163 0.202-0.277s0.070-0.228 0.070-0.351c-0.004-0.158-0.057-0.294-0.163-0.413s-0.255-0.206-0.444-0.272c-0.193-0.061-0.413-0.092-0.668-0.088-0.29 0.004-0.523 0.040-0.707 0.105s-0.316 0.163-0.404 0.29c-0.088 0.127-0.127 0.29-0.123 0.488 0.004 0.145 0.044 0.268 0.119 0.373 0.031 0.044 0.057 0.070 0.088 0.083 0.026 0.013 0.066 0.018 0.114 0.018l0.347-0.004c0.101 0 0.171-0.013 0.22-0.031 0.044-0.018 0.079-0.053 0.092-0.105 0.018-0.048 0.026-0.127 0.026-0.233h0.070c-0.004 0.119-0.009 0.286-0.004 0.51 0.004 0.167 0.009 0.294 0.018 0.373h-0.070c-0.004-0.057-0.018-0.097-0.031-0.119s-0.044-0.040-0.083-0.048c-0.040-0.009-0.105-0.013-0.198-0.009l-0.712 0.013v-0.070c0.040-0.018 0.088-0.026 0.132-0.044z"></path>
<path fill="#292f36" style="fill: var(--color1, #292f36)" d="M26.928 20.342c-0.127-0.040-0.277-0.079-0.448-0.114 0.057-0.154 0.141-0.413 0.259-0.782 0.141-0.439 0.242-0.773 0.303-0.997l0.070 0.022c-0.022 0.083-0.031 0.145-0.031 0.189 0.004 0.044 0.022 0.075 0.057 0.101s0.097 0.053 0.18 0.079l1.7 0.536c0.088 0.026 0.149 0.040 0.193 0.040s0.079-0.018 0.105-0.053c0.026-0.035 0.053-0.092 0.083-0.171l0.070 0.022c-0.079 0.224-0.184 0.553-0.325 0.993-0.105 0.334-0.18 0.575-0.215 0.72-0.145-0.061-0.277-0.114-0.4-0.149-0.088-0.026-0.163-0.048-0.215-0.057l0.026-0.079c0.154 0.031 0.272 0.044 0.351 0.044s0.145-0.026 0.198-0.079c0.053-0.048 0.097-0.136 0.136-0.255l0.088-0.285c0.026-0.083 0.040-0.145 0.035-0.184s-0.018-0.075-0.053-0.101c-0.035-0.026-0.092-0.053-0.18-0.079l-0.808-0.255-0.070 0.228c-0.035 0.114-0.026 0.202 0.031 0.264s0.119 0.105 0.189 0.136c0.070 0.031 0.114 0.053 0.132 0.061l-0.026 0.079c-0.11-0.044-0.215-0.083-0.321-0.114l-0.163-0.048c-0.114-0.035-0.281-0.083-0.492-0.132l0.026-0.079c0.018 0.004 0.075 0.013 0.171 0.035 0.097 0.018 0.18 0.009 0.246-0.026s0.11-0.101 0.141-0.193l0.070-0.228-0.826-0.259c-0.088-0.026-0.149-0.040-0.193-0.040s-0.079 0.018-0.101 0.053c-0.026 0.035-0.053 0.092-0.079 0.176l-0.079 0.25c-0.044 0.145-0.061 0.259-0.044 0.343 0.013 0.088 0.057 0.158 0.132 0.22 0.075 0.057 0.189 0.123 0.343 0.193l-0.026 0.079c-0.053-0.040-0.136-0.066-0.242-0.101z"></path>
<path fill="#292f36" style="fill: var(--color1, #292f36)" d="M25.677 25.731c0.018-0.040 0.013-0.079-0.004-0.119s-0.061-0.088-0.127-0.154l-1.291-1.234c-0.066-0.061-0.119-0.101-0.158-0.119s-0.079-0.018-0.119 0c-0.040 0.018-0.088 0.057-0.149 0.119l-0.053-0.048c0.083-0.075 0.189-0.184 0.325-0.321 0.141-0.149 0.246-0.264 0.312-0.338l0.053 0.048c-0.057 0.066-0.092 0.119-0.11 0.154-0.018 0.040-0.013 0.079 0.004 0.119s0.061 0.088 0.127 0.154l1.291 1.234c0.066 0.061 0.119 0.101 0.158 0.119s0.079 0.018 0.119 0c0.040-0.018 0.088-0.057 0.149-0.119l0.053 0.048c-0.075 0.066-0.184 0.176-0.325 0.325-0.136 0.141-0.237 0.255-0.307 0.338l-0.053-0.048c0.053-0.066 0.088-0.119 0.105-0.158z"></path>
<path fill="#292f36" style="fill: var(--color1, #292f36)" d="M22.018 28.41c0.026-0.040 0.031-0.079 0.022-0.127s-0.040-0.11-0.088-0.193l-1.089-1.849 0.070-0.044 2.486 1.243-0.962-1.634c-0.048-0.079-0.088-0.136-0.127-0.167s-0.083-0.044-0.132-0.040c-0.048 0.004-0.114 0.031-0.198 0.075l-0.040-0.061c0.079-0.035 0.184-0.097 0.321-0.176 0.123-0.075 0.215-0.132 0.281-0.18l0.035 0.061c-0.070 0.044-0.119 0.088-0.141 0.127-0.026 0.040-0.031 0.079-0.022 0.127s0.040 0.11 0.088 0.193l0.887 1.506c0.044 0.079 0.083 0.132 0.119 0.158s0.070 0.040 0.114 0.031c0.040-0.009 0.101-0.031 0.176-0.070l0.035 0.061c-0.070 0.035-0.167 0.088-0.294 0.163-0.092 0.053-0.171 0.105-0.237 0.149l-2.086-1.041 0.782 1.326c0.048 0.079 0.088 0.136 0.127 0.167 0.035 0.031 0.079 0.044 0.132 0.040s0.119-0.031 0.202-0.075l0.035 0.061c-0.079 0.035-0.184 0.097-0.321 0.176-0.123 0.075-0.215 0.132-0.281 0.18l-0.035-0.061c0.066-0.048 0.114-0.092 0.141-0.127z"></path>
<path fill="#292f36" style="fill: var(--color1, #292f36)" d="M19.602 28.986c0.031 0.136 0.070 0.285 0.123 0.444-0.198 0.035-0.527 0.105-0.993 0.202-0.466 0.101-0.791 0.176-0.984 0.224-0.022-0.171-0.044-0.321-0.075-0.457-0.026-0.119-0.048-0.215-0.075-0.285l0.079-0.018c0.057 0.18 0.11 0.307 0.158 0.391s0.11 0.136 0.189 0.163c0.079 0.026 0.193 0.022 0.338-0.009l0.189-0.040-0.43-1.998c-0.022-0.097-0.044-0.167-0.075-0.206s-0.066-0.066-0.119-0.070c-0.053-0.009-0.132 0-0.237 0.018l-0.013-0.070c0.123-0.018 0.299-0.053 0.518-0.101 0.233-0.053 0.409-0.092 0.518-0.123l0.013 0.070c-0.105 0.026-0.176 0.053-0.22 0.079s-0.070 0.066-0.079 0.114c-0.009 0.048-0.004 0.123 0.018 0.22l0.43 1.998 0.189-0.040c0.145-0.031 0.25-0.075 0.312-0.132s0.097-0.132 0.105-0.224c0.009-0.092 0.004-0.233-0.018-0.417l0.079-0.018c0.013 0.070 0.031 0.167 0.057 0.285z"></path>
<path fill="#292f36" style="fill: var(--color1, #292f36)" d="M13.774 27.751c0.013-0.136 0.018-0.29 0.018-0.461 0.162 0.022 0.435 0.048 0.821 0.083 0.457 0.040 0.804 0.070 1.041 0.083l-0.004 0.070c-0.088-0.004-0.149 0-0.189 0.013s-0.070 0.035-0.088 0.075c-0.018 0.040-0.031 0.105-0.040 0.193l-0.158 1.779c-0.009 0.088-0.004 0.154 0.004 0.198s0.035 0.075 0.075 0.092c0.040 0.018 0.101 0.035 0.184 0.044l-0.004 0.070c-0.233-0.026-0.58-0.061-1.037-0.101-0.351-0.031-0.602-0.048-0.751-0.057 0.031-0.154 0.053-0.294 0.062-0.422 0.009-0.092 0.013-0.167 0.009-0.224l0.083 0.009c0.004 0.158 0.013 0.272 0.035 0.351 0.018 0.079 0.057 0.136 0.119 0.176 0.057 0.040 0.154 0.066 0.277 0.075l0.299 0.026c0.088 0.009 0.149 0.004 0.189-0.004s0.070-0.035 0.088-0.075c0.018-0.040 0.031-0.105 0.040-0.193l0.075-0.843-0.237-0.022c-0.119-0.009-0.202 0.018-0.25 0.088-0.044 0.070-0.079 0.141-0.092 0.215-0.018 0.075-0.026 0.123-0.031 0.145l-0.083-0.009c0.018-0.119 0.031-0.228 0.044-0.338l0.013-0.171c0.009-0.123 0.018-0.29 0.026-0.509l0.083 0.009c0 0.018 0.004 0.075 0.004 0.176 0.004 0.101 0.026 0.18 0.079 0.233 0.048 0.057 0.123 0.088 0.22 0.097l0.237 0.022 0.075-0.861c0.009-0.088 0.004-0.154-0.004-0.198-0.009-0.040-0.035-0.070-0.075-0.088s-0.101-0.031-0.184-0.040l-0.264-0.022c-0.149-0.013-0.264-0.004-0.347 0.031-0.079 0.031-0.141 0.092-0.184 0.176s-0.079 0.211-0.114 0.378l-0.083-0.009c0-0.066 0.009-0.154 0.022-0.259z"></path>
<path fill="#292f36" style="fill: var(--color1, #292f36)" d="M10.317 26.122c0.066-0.013 0.141 0 0.22 0.035 0.092 0.040 0.154 0.097 0.189 0.171 0.035 0.079 0.040 0.189 0.018 0.334l-0.066 0.36c-0.022 0.127-0.035 0.224-0.040 0.299-0.004 0.070 0.013 0.136 0.044 0.193s0.088 0.101 0.171 0.136l0.316 0.132 0.321-0.764c0.035-0.083 0.053-0.145 0.057-0.189s-0.013-0.079-0.044-0.11c-0.031-0.031-0.083-0.061-0.163-0.097l0.026-0.066c0.101 0.048 0.237 0.11 0.417 0.184 0.189 0.079 0.334 0.136 0.43 0.167l-0.026 0.066c-0.083-0.031-0.145-0.044-0.184-0.048-0.044 0-0.079 0.013-0.105 0.048-0.031 0.031-0.061 0.088-0.097 0.171l-0.69 1.647c-0.035 0.083-0.053 0.145-0.057 0.189s0.013 0.079 0.044 0.11c0.031 0.031 0.083 0.061 0.163 0.101l-0.026 0.066c-0.092-0.044-0.224-0.105-0.4-0.18-0.088-0.035-0.18-0.075-0.286-0.119s-0.176-0.070-0.215-0.088c-0.171-0.075-0.307-0.158-0.409-0.259s-0.158-0.206-0.184-0.321c-0.026-0.114-0.013-0.224 0.035-0.334 0.035-0.088 0.092-0.167 0.171-0.237s0.18-0.123 0.303-0.149c0.123-0.026 0.272-0.022 0.435 0.018l-0.040-0.022c-0.092-0.057-0.163-0.114-0.206-0.176-0.044-0.057-0.075-0.123-0.083-0.193-0.013-0.070-0.009-0.158 0.009-0.264l0.061-0.373c0.013-0.075 0.022-0.132 0.022-0.176s-0.004-0.079-0.018-0.105c-0.013-0.026-0.035-0.048-0.066-0.057-0.035-0.018-0.070-0.018-0.101-0.009s-0.075 0.031-0.132 0.061l-0.035-0.057c0.079-0.048 0.154-0.083 0.22-0.097zM10.537 27.685c-0.105 0.013-0.189 0.053-0.255 0.119s-0.123 0.154-0.171 0.268c-0.075 0.18-0.092 0.338-0.044 0.466s0.167 0.233 0.365 0.316c0.070 0.031 0.123 0.044 0.167 0.040 0.040 0 0.075-0.018 0.105-0.053s0.062-0.092 0.092-0.171l0.343-0.817-0.224-0.092c-0.145-0.061-0.272-0.088-0.378-0.075z"></path>
<path fill="#292f36" style="fill: var(--color1, #292f36)" d="M6.891 26.719c0.040 0.013 0.079 0.004 0.114-0.018s0.083-0.070 0.141-0.141l1.102-1.405c0.057-0.070 0.092-0.127 0.105-0.167s0.009-0.079-0.013-0.114c-0.022-0.035-0.066-0.083-0.132-0.141l0.044-0.057c0.083 0.075 0.198 0.171 0.351 0.29 0.162 0.127 0.285 0.22 0.369 0.277l-0.044 0.057c-0.070-0.053-0.127-0.083-0.167-0.092-0.040-0.013-0.079-0.009-0.114 0.018-0.035 0.022-0.083 0.070-0.141 0.141l-1.102 1.405c-0.057 0.070-0.092 0.127-0.105 0.167s-0.009 0.079 0.013 0.114c0.022 0.035 0.066 0.083 0.132 0.141l-0.044 0.057c-0.075-0.066-0.193-0.163-0.356-0.294-0.154-0.119-0.277-0.211-0.365-0.272l0.044-0.057c0.075 0.048 0.127 0.079 0.167 0.092z"></path>
<path fill="#292f36" style="fill: var(--color1, #292f36)" d="M4.054 23.592c-0.018-0.198 0.026-0.395 0.127-0.584 0.105-0.193 0.264-0.365 0.483-0.527 0.215-0.154 0.43-0.255 0.654-0.294s0.43-0.026 0.624 0.048c0.193 0.075 0.356 0.202 0.483 0.382 0.136 0.184 0.211 0.378 0.228 0.575s-0.026 0.395-0.127 0.584c-0.105 0.193-0.263 0.365-0.483 0.527-0.215 0.154-0.43 0.255-0.654 0.294-0.22 0.040-0.43 0.026-0.624-0.048s-0.356-0.202-0.483-0.378c-0.136-0.189-0.211-0.382-0.228-0.58zM4.713 24.374c0.154 0.031 0.329 0.018 0.523-0.044s0.387-0.163 0.589-0.312c0.202-0.145 0.36-0.303 0.47-0.47 0.114-0.167 0.176-0.334 0.184-0.492 0.013-0.158-0.026-0.299-0.11-0.417-0.092-0.123-0.211-0.202-0.369-0.233-0.154-0.031-0.329-0.018-0.523 0.044s-0.386 0.163-0.589 0.307c-0.202 0.145-0.36 0.303-0.47 0.474-0.114 0.167-0.176 0.329-0.189 0.492-0.013 0.158 0.026 0.299 0.11 0.417 0.092 0.123 0.215 0.202 0.373 0.233z"></path>
<path fill="#292f36" style="fill: var(--color1, #292f36)" d="M4.392 18.304c0.053 0.040 0.092 0.105 0.119 0.193 0.031 0.092 0.026 0.18-0.009 0.255-0.035 0.079-0.119 0.154-0.246 0.228l-0.321 0.18c-0.11 0.066-0.193 0.119-0.25 0.163s-0.097 0.097-0.119 0.158c-0.022 0.061-0.022 0.132 0.004 0.22l0.101 0.329 0.791-0.246c0.088-0.026 0.145-0.053 0.18-0.079s0.053-0.061 0.057-0.101c0.004-0.040-0.009-0.105-0.031-0.189l0.070-0.022c0.026 0.105 0.066 0.255 0.127 0.439 0.061 0.198 0.11 0.343 0.145 0.435l-0.070 0.022c-0.031-0.083-0.057-0.141-0.083-0.171s-0.061-0.053-0.105-0.053c-0.044 0-0.11 0.009-0.193 0.040l-1.704 0.527c-0.088 0.026-0.145 0.053-0.18 0.079s-0.053 0.061-0.057 0.101c-0.004 0.044 0.009 0.105 0.031 0.189l-0.070 0.022c-0.022-0.097-0.062-0.237-0.119-0.422-0.026-0.088-0.062-0.189-0.097-0.294s-0.062-0.18-0.075-0.22c-0.057-0.18-0.075-0.338-0.062-0.479s0.057-0.255 0.127-0.347c0.070-0.092 0.163-0.154 0.277-0.189 0.088-0.026 0.184-0.035 0.29-0.022s0.206 0.057 0.312 0.136c0.105 0.079 0.193 0.193 0.268 0.347l-0.004-0.044c-0.013-0.11-0.018-0.198 0-0.272s0.048-0.136 0.092-0.189c0.048-0.053 0.119-0.11 0.211-0.163l0.325-0.193c0.066-0.035 0.119-0.070 0.149-0.097s0.057-0.053 0.070-0.079c0.013-0.026 0.013-0.057 0.004-0.088-0.013-0.040-0.031-0.066-0.057-0.083s-0.070-0.040-0.132-0.061l0.022-0.066c0.088 0.031 0.163 0.066 0.211 0.105zM3.342 19.481c-0.075-0.070-0.163-0.11-0.255-0.119s-0.198 0.004-0.316 0.044c-0.189 0.057-0.316 0.149-0.386 0.268s-0.070 0.281-0.009 0.479c0.022 0.070 0.048 0.123 0.075 0.154s0.066 0.048 0.11 0.048c0.044 0 0.11-0.013 0.189-0.035l0.843-0.264-0.070-0.233c-0.044-0.158-0.105-0.272-0.18-0.343z"></path>
<path fill="#292f36" style="fill: var(--color1, #292f36)" d="M4.054 14.136c0.167-0.075 0.268-0.215 0.312-0.426 0.013-0.079 0.013-0.158-0.009-0.233s-0.061-0.141-0.123-0.198c-0.061-0.057-0.145-0.097-0.255-0.114-0.092-0.018-0.176-0.009-0.255 0.022s-0.158 0.079-0.233 0.145c-0.075 0.066-0.163 0.154-0.259 0.264-0.11 0.123-0.206 0.224-0.29 0.294-0.083 0.075-0.176 0.127-0.277 0.167s-0.215 0.044-0.343 0.022c-0.132-0.026-0.242-0.075-0.321-0.154s-0.136-0.171-0.163-0.281c-0.026-0.11-0.026-0.224-0.004-0.347 0.013-0.075 0.031-0.132 0.053-0.184s0.044-0.092 0.070-0.123c0.026-0.031 0.053-0.066 0.088-0.101 0.044-0.048 0.066-0.083 0.075-0.11 0.004-0.022-0.004-0.040-0.026-0.057s-0.062-0.031-0.114-0.048l0.013-0.079c0.136 0.035 0.373 0.088 0.72 0.154l-0.013 0.079c-0.123-0.013-0.237-0.009-0.351 0.018-0.11 0.022-0.206 0.070-0.285 0.145-0.079 0.070-0.132 0.171-0.154 0.294-0.018 0.083-0.013 0.158 0.009 0.233s0.061 0.132 0.114 0.18c0.057 0.048 0.123 0.079 0.202 0.097 0.127 0.022 0.237 0.004 0.329-0.057s0.18-0.141 0.264-0.233c0.083-0.092 0.136-0.154 0.167-0.184 0.123-0.132 0.224-0.233 0.307-0.307s0.176-0.127 0.277-0.162c0.101-0.035 0.211-0.040 0.329-0.018 0.145 0.026 0.264 0.083 0.351 0.167 0.088 0.088 0.145 0.189 0.176 0.312s0.031 0.255 0.004 0.395c-0.022 0.114-0.048 0.202-0.088 0.272-0.035 0.070-0.083 0.132-0.136 0.189-0.044 0.048-0.066 0.083-0.075 0.11-0.004 0.022 0.004 0.040 0.026 0.057s0.061 0.035 0.114 0.048l-0.013 0.079c-0.127-0.035-0.409-0.092-0.843-0.171l0.013-0.079c0.246 0.022 0.448 0 0.615-0.075z"></path>
<path fill="#292f36" style="fill: var(--color1, #292f36)" d="M3.184 10.433c-0.123-0.066-0.264-0.127-0.422-0.189 0.097-0.171 0.259-0.47 0.479-0.896 0.22-0.422 0.373-0.72 0.457-0.9 0.145 0.092 0.277 0.171 0.395 0.233 0.105 0.057 0.198 0.097 0.268 0.127l-0.040 0.075c-0.176-0.070-0.307-0.114-0.4-0.127-0.092-0.018-0.176 0-0.246 0.044s-0.141 0.132-0.206 0.264l-0.088 0.176 1.814 0.944c0.088 0.048 0.158 0.070 0.206 0.075s0.092-0.009 0.132-0.044c0.040-0.035 0.083-0.101 0.136-0.193l0.066 0.035c-0.066 0.11-0.149 0.264-0.255 0.466-0.11 0.211-0.189 0.373-0.237 0.474l-0.066-0.035c0.044-0.097 0.075-0.171 0.079-0.22 0.009-0.053-0.004-0.097-0.040-0.136s-0.092-0.079-0.18-0.127l-1.814-0.949-0.092 0.171c-0.070 0.132-0.101 0.237-0.097 0.321s0.040 0.158 0.105 0.224c0.066 0.066 0.176 0.154 0.334 0.255l-0.040 0.075c-0.057-0.035-0.145-0.083-0.25-0.141z"></path>
<path fill="#292f36" style="fill: var(--color1, #292f36)" d="M6.285 5.386c0.075-0.075 0.136-0.145 0.18-0.198l0.053 0.053c-0.026 0.040-0.040 0.097-0.035 0.163s0.022 0.158 0.057 0.268l0.4 1.19 0.466 0.461c0.066 0.061 0.114 0.105 0.154 0.123s0.079 0.018 0.119 0c0.040-0.018 0.088-0.057 0.154-0.114l0.053 0.053c-0.083 0.075-0.193 0.18-0.329 0.316-0.145 0.145-0.25 0.259-0.316 0.334l-0.053-0.053c0.057-0.066 0.097-0.114 0.114-0.154s0.018-0.079-0.004-0.119c-0.018-0.040-0.061-0.092-0.123-0.154l-0.386-0.382-1.467-0.43c-0.088-0.026-0.154-0.035-0.198-0.031s-0.075 0.018-0.097 0.040l-0.053-0.053c0.070-0.061 0.149-0.132 0.228-0.215 0.162-0.167 0.281-0.285 0.347-0.365l0.053 0.053c-0.119 0.119-0.145 0.211-0.079 0.277 0.026 0.026 0.061 0.044 0.114 0.061l1.234 0.382-0.325-0.971c-0.048-0.141-0.097-0.237-0.149-0.285-0.048-0.048-0.101-0.061-0.158-0.044s-0.123 0.061-0.202 0.136l-0.053-0.053c0.105-0.097 0.202-0.193 0.303-0.29z"></path>
<path fill="#292f36" style="fill: var(--color1, #292f36)" d="M8.942 3.616c-0.026 0.031-0.040 0.070-0.031 0.114s0.031 0.105 0.075 0.184l0.848 1.572c0.044 0.079 0.079 0.132 0.114 0.162 0.031 0.031 0.070 0.040 0.11 0.035s0.101-0.031 0.176-0.070l0.233-0.127c0.132-0.070 0.224-0.145 0.272-0.22s0.066-0.158 0.053-0.259c-0.013-0.101-0.053-0.228-0.123-0.395l0.075-0.040c0.031 0.070 0.075 0.158 0.132 0.263 0.066 0.119 0.145 0.25 0.242 0.395-0.145 0.070-0.391 0.198-0.729 0.382-0.404 0.22-0.712 0.387-0.914 0.505l-0.035-0.061c0.075-0.044 0.127-0.083 0.154-0.114s0.040-0.070 0.031-0.114c-0.009-0.044-0.031-0.105-0.075-0.184l-0.857-1.572c-0.044-0.079-0.079-0.132-0.114-0.163-0.031-0.031-0.070-0.040-0.11-0.035-0.044 0.004-0.101 0.026-0.18 0.066l-0.031-0.066c0.092-0.040 0.228-0.11 0.409-0.211 0.171-0.092 0.303-0.167 0.395-0.224l0.035 0.062c-0.075 0.044-0.123 0.083-0.154 0.114z"></path>
<path fill="#292f36" style="fill: var(--color1, #292f36)" d="M14.292 3.897c0.026 0.132 0.066 0.281 0.114 0.448-0.163 0.026-0.43 0.075-0.808 0.149-0.452 0.088-0.791 0.158-1.023 0.211l-0.013-0.070c0.083-0.022 0.145-0.040 0.18-0.066 0.035-0.022 0.057-0.057 0.062-0.097 0.004-0.044 0-0.11-0.018-0.198l-0.343-1.752c-0.018-0.088-0.035-0.149-0.062-0.189s-0.053-0.062-0.097-0.066c-0.040-0.009-0.105-0.004-0.189 0.009l-0.013-0.070c0.233-0.040 0.575-0.101 1.023-0.189 0.347-0.070 0.593-0.119 0.733-0.154 0.013 0.158 0.035 0.299 0.057 0.422 0.018 0.092 0.035 0.163 0.053 0.215l-0.079 0.018c-0.048-0.149-0.092-0.259-0.132-0.329s-0.097-0.114-0.162-0.136c-0.070-0.022-0.163-0.022-0.29 0.004l-0.294 0.057c-0.083 0.018-0.145 0.035-0.18 0.057s-0.057 0.053-0.066 0.097c-0.004 0.044 0 0.11 0.018 0.198l0.163 0.835 0.233-0.048c0.119-0.022 0.189-0.075 0.215-0.154s0.035-0.154 0.031-0.228c-0.004-0.075-0.009-0.123-0.009-0.145l0.079-0.018c0.013 0.119 0.031 0.228 0.053 0.334l0.035 0.167c0.022 0.119 0.061 0.285 0.119 0.496l-0.079 0.018c-0.004-0.018-0.022-0.070-0.053-0.167s-0.075-0.163-0.141-0.202c-0.066-0.040-0.141-0.048-0.237-0.031l-0.233 0.044 0.167 0.848c0.018 0.088 0.035 0.149 0.057 0.189 0.022 0.035 0.053 0.057 0.097 0.066 0.040 0.004 0.105 0 0.189-0.018l0.259-0.053c0.145-0.031 0.255-0.070 0.325-0.123s0.11-0.127 0.127-0.22c0.018-0.092 0.018-0.224 0.004-0.395l0.079-0.018c0.013 0.066 0.026 0.149 0.048 0.255z"></path>
<path fill="#292f36" style="fill: var(--color1, #292f36)" d="M11.332 20.671c-0.202-0.272-0.378-0.571-0.531-0.9s-0.277-0.663-0.369-1.006c-0.202-1.507-0.206-2.969-0.018-4.388s0.496-2.815 0.918-4.195c0.070-0.154 0.224-0.228 0.461-0.228s0.47 0.053 0.707 0.158c0.237 0.105 0.43 0.246 0.584 0.422s0.189 0.36 0.105 0.549c-0.132 0.281-0.259 0.663-0.387 1.138-0.127 0.479-0.255 1.006-0.369 1.581-0.119 0.575-0.22 1.181-0.307 1.81s-0.154 1.234-0.193 1.81c-0.040 0.575-0.048 1.098-0.026 1.564s0.092 0.835 0.211 1.102c0.553-0.742 1.059-1.511 1.52-2.306s0.892-1.599 1.296-2.42c0.404-0.817 0.791-1.643 1.155-2.482 0.365-0.835 0.725-1.66 1.076-2.473 0.176-0.413 0.351-0.848 0.523-1.304 0.171-0.461 0.395-0.852 0.681-1.181 0.119-0.105 0.211-0.141 0.272-0.105 0.066 0.035 0.11 0.101 0.132 0.202s0.035 0.206 0.035 0.316c0 0.11 0 0.198 0 0.255-0.083 0.54-0.154 1.076-0.211 1.607s-0.184 1.041-0.369 1.537c-0.307 0.777-0.619 1.546-0.944 2.315-0.325 0.764-0.672 1.52-1.041 2.262s-0.773 1.463-1.199 2.161c-0.43 0.703-0.896 1.37-1.405 2.003-0.4 0.505-0.799 0.773-1.19 0.804-0.409 0.035-0.773-0.171-1.116-0.606z"></path>
<path fill="#292f36" style="fill: var(--color1, #292f36)" d="M18.605 18.677c-0.237-0.329-0.47-0.663-0.698-1.006s-0.343-0.716-0.343-1.129c0-0.457 0.132-0.892 0.395-1.3 0.264-0.404 0.567-0.733 0.909-0.979 0.141-0.092 0.285-0.171 0.43-0.228s0.303-0.053 0.47 0.018c0.070 0.035 0.145 0.062 0.22 0.079s0.145 0.040 0.202 0.061c0.057 0.022 0.123 0.057 0.193 0.105s0.105 0.11 0.105 0.193c0 0.329 0.009 0.597 0.026 0.804s0.044 0.382 0.079 0.531c0.035 0.149 0.070 0.277 0.105 0.387 0.035 0.114 0.070 0.233 0.105 0.36 0.022 0.119 0.018 0.22-0.018 0.299-0.035 0.083-0.123 0.092-0.264 0.035-0.259-0.092-0.452-0.281-0.575-0.567s-0.215-0.54-0.272-0.777c-0.013-0.048-0.040-0.127-0.088-0.246s-0.075-0.202-0.088-0.246c-0.092-0.022-0.206 0.009-0.334 0.097s-0.246 0.211-0.343 0.36c-0.101 0.154-0.167 0.329-0.193 0.531-0.031 0.202 0.009 0.4 0.114 0.602 0.048 0.070 0.114 0.158 0.202 0.255 0.088 0.101 0.176 0.202 0.264 0.307s0.176 0.211 0.264 0.307c0.088 0.097 0.163 0.18 0.22 0.237 0.070 0.070 0.119 0.11 0.141 0.114s0.083-0.009 0.176-0.044c0.119-0.057 0.299-0.136 0.54-0.228s0.496-0.189 0.76-0.281c0.264-0.092 0.518-0.171 0.76-0.237s0.426-0.097 0.558-0.097c0.083 0 0.141 0.031 0.176 0.088 0.035 0.035 0.031 0.083-0.018 0.141s-0.11 0.119-0.184 0.176c-0.075 0.057-0.158 0.11-0.237 0.158-0.083 0.048-0.136 0.075-0.158 0.088-0.202 0.119-0.452 0.25-0.76 0.4-0.307 0.145-0.571 0.29-0.795 0.43-0.022 0.022-0.066 0.048-0.132 0.070s-0.114 0.048-0.149 0.070c0.141 0.316 0.242 0.593 0.299 0.821s0.079 0.448 0.061 0.663c-0.018 0.211-0.061 0.426-0.132 0.646s-0.167 0.47-0.281 0.751c-0.167 0.272-0.334 0.531-0.505 0.777s-0.36 0.47-0.575 0.672c-0.211 0.202-0.444 0.36-0.69 0.474-0.246 0.119-0.518 0.176-0.813 0.176-0.167 0-0.325-0.022-0.479-0.061s-0.281-0.127-0.387-0.255c-0.272-0.294-0.422-0.615-0.457-0.962s-0.004-0.69 0.088-1.032c0.070-0.211 0.158-0.404 0.264-0.584 0.259-0.448 0.545-0.826 0.856-1.138 0.316-0.307 0.641-0.606 0.984-0.887zM19.207 19.472c-0.132 0.132-0.307 0.316-0.531 0.558s-0.43 0.505-0.628 0.786c-0.193 0.281-0.351 0.562-0.474 0.839s-0.154 0.514-0.097 0.716c0.237-0.105 0.479-0.281 0.725-0.523s0.466-0.505 0.654-0.795c0.189-0.29 0.321-0.575 0.395-0.856 0.075-0.285 0.061-0.527-0.044-0.725z"></path>
<path fill="#292f36" style="fill: var(--color1, #292f36)" d="M15.742 25.828c-5.495 0-9.966-4.471-9.966-9.966s4.471-9.966 9.966-9.966c5.495 0 9.966 4.471 9.966 9.966s-4.471 9.966-9.966 9.966zM15.742 6.335c-5.253 0-9.527 4.274-9.527 9.527s4.274 9.527 9.527 9.527c5.253 0 9.527-4.274 9.527-9.527s-4.274-9.527-9.527-9.527z"></path>
</symbol>
<symbol id="icon_1" viewBox="0 0 96 32">
<path d="M8.461 0.284v0.135l-0.561 0.135v5.98l0.561 0.135v0.135h-2.658v-0.135l0.561-0.135v-5.097l-2.201 5.461h-0.28l-2.855-5.461v4.952l0.747 0.28v0.135h-1.775v-0.135l0.747-0.28v-5.834l-0.561-0.135v-0.135h1.163c0.177 0 0.332 0.021 0.457 0.062s0.249 0.093 0.343 0.166c0.104 0.073 0.187 0.156 0.26 0.249s0.135 0.208 0.197 0.322l2.035 3.893 1.557-3.893c0.052-0.135 0.104-0.249 0.176-0.343 0.062-0.093 0.145-0.176 0.239-0.249s0.208-0.125 0.343-0.156c0.135-0.031 0.301-0.052 0.509-0.052h0.997z"></path>
<path d="M11.783 2.018c0.384 0 0.737 0.052 1.038 0.166s0.561 0.28 0.779 0.488c0.218 0.218 0.374 0.478 0.488 0.779s0.166 0.654 0.166 1.038c0 0.384-0.052 0.737-0.166 1.038s-0.28 0.561-0.488 0.779c-0.218 0.218-0.478 0.374-0.779 0.488s-0.654 0.166-1.038 0.166c-0.384 0-0.737-0.052-1.038-0.166s-0.561-0.28-0.779-0.488c-0.218-0.218-0.374-0.478-0.488-0.779s-0.166-0.654-0.166-1.038c0-0.384 0.052-0.737 0.166-1.038s0.28-0.561 0.488-0.779c0.218-0.218 0.478-0.374 0.779-0.488s0.644-0.166 1.038-0.166zM11.783 6.783c0.104 0 0.208-0.031 0.322-0.104 0.104-0.073 0.197-0.187 0.28-0.363s0.156-0.405 0.208-0.696c0.052-0.301 0.083-0.675 0.083-1.121 0-0.457-0.031-0.831-0.083-1.121s-0.125-0.529-0.208-0.696c-0.083-0.166-0.176-0.291-0.28-0.363s-0.208-0.104-0.322-0.104c-0.104 0-0.208 0.031-0.322 0.104-0.104 0.073-0.197 0.187-0.28 0.363s-0.156 0.405-0.208 0.696c-0.052 0.301-0.083 0.675-0.083 1.121 0 0.457 0.031 0.831 0.083 1.121s0.125 0.529 0.208 0.696 0.177 0.291 0.28 0.363c0.104 0.062 0.208 0.104 0.322 0.104z"></path>
<path d="M18.79 0.284c0.561 0 0.841 0.28 0.841 0.841v5.419l0.561 0.135v0.135h-0.841c-0.228 0-0.405-0.031-0.54-0.104s-0.249-0.156-0.322-0.239c-0.093-0.104-0.166-0.228-0.208-0.353-0.083 0.166-0.187 0.301-0.311 0.426-0.104 0.104-0.249 0.197-0.426 0.291s-0.384 0.135-0.623 0.135c-0.27 0-0.519-0.052-0.747-0.156-0.239-0.104-0.436-0.26-0.602-0.467s-0.311-0.467-0.405-0.768c-0.104-0.311-0.145-0.664-0.145-1.080s0.052-0.768 0.145-1.080c0.104-0.311 0.239-0.561 0.426-0.768 0.176-0.208 0.394-0.363 0.644-0.467s0.529-0.156 0.841-0.156c0.166 0 0.311 0.021 0.446 0.052 0.135 0.042 0.249 0.083 0.343 0.135 0.114 0.052 0.208 0.114 0.291 0.187v-1.817l-0.561-0.135v-0.135h1.194v-0.031zM18.136 2.672c-0.073-0.073-0.135-0.135-0.218-0.187-0.073-0.052-0.145-0.093-0.228-0.135s-0.166-0.052-0.259-0.052c-0.114 0-0.228 0.031-0.332 0.093s-0.187 0.166-0.27 0.322c-0.073 0.156-0.135 0.384-0.176 0.664-0.042 0.291-0.062 0.654-0.062 1.111 0 0.446 0.021 0.799 0.062 1.080s0.093 0.498 0.166 0.654c0.062 0.156 0.135 0.27 0.228 0.322 0.083 0.052 0.166 0.083 0.249 0.083 0.145 0 0.27-0.042 0.374-0.114s0.187-0.166 0.259-0.26c0.083-0.114 0.156-0.239 0.218-0.374v-3.208h-0.010z"></path>
<path d="M23.317 6.97c-0.799 0-1.422-0.218-1.858-0.654-0.446-0.436-0.664-1.049-0.664-1.817 0-0.384 0.052-0.737 0.166-1.038s0.27-0.561 0.467-0.779c0.197-0.218 0.436-0.374 0.727-0.488 0.28-0.114 0.592-0.166 0.934-0.166 0.353 0 0.664 0.052 0.934 0.145 0.28 0.104 0.509 0.239 0.706 0.405s0.343 0.363 0.446 0.592c0.104 0.228 0.156 0.467 0.156 0.727 0 0.083 0 0.166-0.010 0.228s-0.021 0.125-0.031 0.176c-0.021 0.062-0.031 0.114-0.052 0.156-0.27 0.052-0.561 0.104-0.872 0.135-0.259 0.042-0.561 0.073-0.903 0.093s-0.696 0.042-1.069 0.042c0 0.384 0.031 0.706 0.083 0.965s0.135 0.467 0.228 0.612c0.104 0.156 0.218 0.26 0.353 0.322s0.291 0.093 0.446 0.093c0.187 0 0.363-0.031 0.529-0.104s0.311-0.156 0.426-0.27c0.125-0.114 0.218-0.249 0.291-0.394s0.104-0.291 0.104-0.446h0.228c0 0.187-0.042 0.363-0.125 0.54s-0.208 0.332-0.363 0.467c-0.156 0.135-0.343 0.239-0.561 0.322-0.208 0.093-0.446 0.135-0.716 0.135zM22.382 4.489c0.208 0 0.394 0 0.561-0.010s0.301-0.021 0.415-0.031c0.135-0.010 0.239-0.031 0.332-0.042 0.010-0.062 0.031-0.135 0.042-0.208s0.021-0.145 0.031-0.228c0.010-0.083 0.010-0.176 0.010-0.27 0-0.28-0.021-0.519-0.062-0.706s-0.093-0.343-0.166-0.467c-0.062-0.114-0.135-0.208-0.228-0.249s-0.166-0.073-0.249-0.073c-0.083 0-0.166 0.031-0.249 0.093s-0.156 0.176-0.228 0.332c-0.062 0.166-0.125 0.394-0.166 0.696s-0.042 0.685-0.042 1.163z"></path>
<path d="M29.255 2.34c-0.187 0-0.353 0.042-0.498 0.114s-0.27 0.166-0.374 0.26c-0.114 0.114-0.208 0.239-0.301 0.374v3.457l0.561 0.135v0.135h-2.616v-0.135l0.561-0.135v-4.111l-0.561-0.135v-0.135h0.841c0.218 0 0.394 0.042 0.54 0.114 0.135 0.073 0.249 0.156 0.332 0.239 0.093 0.104 0.166 0.218 0.208 0.343 0.093-0.135 0.208-0.26 0.343-0.374 0.114-0.093 0.26-0.176 0.436-0.26s0.374-0.114 0.613-0.114c0.332 0 0.581 0.083 0.747 0.228 0.166 0.156 0.239 0.374 0.239 0.654 0 0.208-0.062 0.384-0.187 0.509s-0.301 0.187-0.509 0.187c-0.052 0-0.093 0-0.145 0s-0.083-0.010-0.114-0.010c-0.042-0.010-0.083-0.010-0.114-0.031v-1.308z"></path>
<path d="M34.342 3.554c0-0.208-0.021-0.394-0.062-0.55s-0.093-0.28-0.166-0.374c-0.062-0.104-0.135-0.176-0.228-0.218-0.083-0.042-0.166-0.073-0.249-0.073-0.145 0-0.27 0.042-0.374 0.114s-0.197 0.166-0.26 0.26c-0.083 0.114-0.145 0.239-0.208 0.374v3.457l0.561 0.135v0.135h-2.616v-0.135l0.561-0.135v-4.111l-0.561-0.135v-0.135h0.841c0.218 0 0.394 0.042 0.54 0.114 0.135 0.073 0.249 0.156 0.332 0.239 0.093 0.104 0.166 0.218 0.208 0.343 0.083-0.156 0.187-0.301 0.312-0.426 0.104-0.104 0.249-0.197 0.415-0.291s0.384-0.135 0.633-0.135c0.27 0 0.519 0.042 0.737 0.135 0.228 0.083 0.415 0.208 0.571 0.343 0.156 0.145 0.28 0.301 0.374 0.488s0.135 0.374 0.135 0.571v2.99l0.561 0.135v0.135h-1.215c-0.561 0-0.841-0.28-0.841-0.841v-2.409z"></path>
<path d="M0.986 13.375v-0.384h7.215v0.384l-1.516 0.384v7.838h5.44v-7.838l-1.516-0.384v-0.384h7.215v0.384l-1.516 0.384v16.195l1.516 0.384v0.384h-7.215v-0.395l1.516-0.384v-7.713h-5.44v7.713l1.516 0.384v0.384h-7.215v-0.384l1.516-0.384v-16.195l-1.516-0.374z"></path>
<path d="M26.794 17.673c1.049 0 1.983 0.156 2.813 0.457s1.526 0.747 2.107 1.329c0.581 0.581 1.028 1.287 1.329 2.118s0.457 1.765 0.457 2.813c0 1.049-0.156 1.983-0.457 2.813s-0.748 1.526-1.329 2.107c-0.581 0.581-1.287 1.028-2.107 1.329-0.83 0.301-1.765 0.457-2.813 0.457s-1.983-0.156-2.813-0.457c-0.83-0.301-1.526-0.747-2.107-1.329s-1.028-1.287-1.329-2.107c-0.301-0.831-0.457-1.765-0.457-2.813s0.156-1.983 0.457-2.813c0.301-0.831 0.747-1.526 1.329-2.118s1.287-1.028 2.107-1.329c0.831-0.301 1.765-0.457 2.813-0.457zM26.794 30.577c0.291 0 0.571-0.093 0.862-0.28s0.54-0.509 0.768-0.976c0.228-0.467 0.415-1.1 0.561-1.9s0.218-1.817 0.218-3.052c0-1.235-0.073-2.253-0.218-3.052s-0.332-1.433-0.561-1.9c-0.228-0.467-0.488-0.789-0.768-0.976s-0.571-0.28-0.862-0.28-0.571 0.093-0.862 0.28c-0.291 0.187-0.54 0.509-0.768 0.976s-0.415 1.1-0.561 1.9c-0.145 0.799-0.218 1.817-0.218 3.052s0.073 2.253 0.218 3.052c0.145 0.799 0.332 1.433 0.561 1.9s0.488 0.789 0.768 0.976c0.291 0.187 0.571 0.28 0.862 0.28z"></path>
<path d="M52.468 21.846c0-0.602-0.052-1.121-0.156-1.526s-0.228-0.747-0.395-1.007c-0.166-0.259-0.343-0.446-0.529-0.571-0.197-0.114-0.384-0.177-0.571-0.177-0.322 0-0.602 0.104-0.851 0.311s-0.457 0.446-0.644 0.696c-0.197 0.301-0.384 0.644-0.529 1.007v9.364l1.526 0.384v0.384h-7.080v-0.384l1.516-0.384v-8.098c0-0.602-0.052-1.121-0.156-1.526s-0.228-0.747-0.395-1.007c-0.166-0.259-0.343-0.446-0.529-0.571-0.197-0.114-0.384-0.177-0.571-0.177-0.322 0-0.602 0.104-0.851 0.311s-0.457 0.446-0.644 0.696c-0.208 0.301-0.384 0.644-0.529 1.007v9.364l1.516 0.384v0.384h-7.080v-0.384l1.516-0.384v-11.129l-1.516-0.384v-0.384h2.274c0.592 0 1.080 0.104 1.453 0.301 0.384 0.197 0.675 0.426 0.903 0.654 0.249 0.291 0.436 0.602 0.561 0.934 0.218-0.426 0.488-0.799 0.81-1.142 0.291-0.291 0.644-0.55 1.059-0.789 0.426-0.239 0.934-0.353 1.547-0.353 1.007 0 1.889 0.228 2.616 0.675 0.737 0.446 1.298 1.028 1.682 1.734 0.218-0.436 0.488-0.831 0.81-1.194 0.291-0.301 0.644-0.581 1.059-0.831 0.426-0.249 0.934-0.384 1.547-0.384 0.696 0 1.318 0.114 1.9 0.332 0.571 0.218 1.069 0.519 1.484 0.903s0.737 0.82 0.966 1.329c0.228 0.509 0.343 1.049 0.343 1.619v8.098l1.516 0.384v0.384h-3.291c-1.516 0-2.274-0.758-2.274-2.274v-6.582h-0.010z"></path>
<path d="M66.39 31.086c-2.159 0-3.841-0.592-5.035-1.786s-1.796-2.824-1.796-4.921c0-1.049 0.156-1.983 0.457-2.813s0.727-1.526 1.267-2.118c0.54-0.581 1.194-1.028 1.962-1.329s1.609-0.457 2.512-0.457c0.945 0 1.796 0.135 2.543 0.405s1.391 0.633 1.91 1.090c0.519 0.457 0.924 0.997 1.204 1.609s0.415 1.266 0.415 1.962c0 0.239-0.010 0.446-0.042 0.623s-0.052 0.332-0.093 0.467c-0.052 0.166-0.093 0.311-0.125 0.426-0.748 0.156-1.526 0.28-2.357 0.384-0.706 0.104-1.526 0.187-2.45 0.27-0.924 0.073-1.9 0.114-2.907 0.114 0 1.049 0.073 1.921 0.228 2.616s0.363 1.256 0.633 1.671c0.27 0.415 0.592 0.706 0.965 0.882s0.779 0.27 1.215 0.27c0.509 0 0.986-0.093 1.433-0.28s0.83-0.436 1.163-0.747c0.332-0.311 0.592-0.664 0.789-1.059s0.291-0.799 0.291-1.204h0.633c0 0.509-0.114 0.997-0.343 1.464-0.228 0.478-0.55 0.893-0.976 1.256s-0.924 0.654-1.516 0.872c-0.602 0.218-1.267 0.332-1.983 0.332zM63.856 24.379c0.571 0 1.080-0.010 1.516-0.042s0.81-0.052 1.111-0.083c0.353-0.031 0.654-0.073 0.914-0.125 0.031-0.166 0.073-0.353 0.125-0.561 0.031-0.187 0.062-0.395 0.083-0.623s0.042-0.467 0.042-0.716c0-0.758-0.062-1.391-0.176-1.91s-0.27-0.934-0.446-1.256c-0.177-0.322-0.384-0.55-0.602-0.685-0.228-0.135-0.457-0.208-0.675-0.208s-0.446 0.083-0.675 0.239c-0.228 0.166-0.426 0.467-0.602 0.914s-0.322 1.080-0.446 1.889c-0.104 0.81-0.166 1.869-0.166 3.166z"></path>
<path d="M84.256 30.453v-10.267l-9.073-7.184v17.451h9.073z"></path>
<path d="M95.479 30.453v-10.267l-8.928-7.184v17.451h8.928z"></path>
</symbol>
</defs>
</svg>
